<svg xmlns="http://www.w3.org/2000/svg" xmlns:xlink="http://www.w3.org/1999/xlink" width="418" zoomAndPan="magnify" viewBox="0 0 313.5 233.249991" height="311" preserveAspectRatio="xMidYMid meet" version="1.0">
  <!-- <defs>
    <clipPath id="11e870a641">
      <path d="M 0.253906 0 L 312.75 0 L 312.75 232.503906 L 0.253906 232.503906 Z M 0.253906 0 " clip-rule="nonzero"/>
    </clipPath>
    <clipPath id="2b9ff25d6d"><path d="M 38 38.121094 L 275 38.121094 L 275 106 L 38 106 Z M 38 38.121094 " clip-rule="nonzero"/>
    </clipPath>
    <clipPath id="200d403186"><path d="M 38 127 L 275 127 L 275 194.824219 L 38 194.824219 Z M 38 127 " clip-rule="nonzero"/>
    </clipPath>
  </defs> -->
    <!-- <g clip-path="url(#11e870a641)">
      <path fill="#ffffff" d="M 0.253906 0 L 313.246094 0 L 313.246094 239.613281 L 0.253906 239.613281 Z M 0.253906 0 " fill-opacity="1" fill-rule="nonzero"/>
      <path fill="#ffffff" d="M 0.253906 0 L 313.246094 0 L 313.246094 232.875 L 0.253906 232.875 Z M 0.253906 0 " fill-opacity="1" fill-rule="nonzero"/>
    </g> -->
    <g clip-path="url(#2b9ff25d6d)"><path fill="#161212" d="M 273.898438 44.136719 C 273.980469 44.140625 274.0625 44.140625 274.144531 44.140625 C 275.140625 44.144531 275.128906 42.65625 274.144531 42.601562 C 274.074219 42.597656 274.007812 42.59375 273.941406 42.589844 C 273.960938 41.84375 273.980469 41.097656 274 40.347656 C 274.015625 39.808594 273.566406 39.5625 273.148438 39.613281 C 273.15625 39.476562 273.164062 39.335938 273.171875 39.199219 C 273.230469 38.207031 271.691406 38.210938 271.632812 39.199219 C 271.566406 40.285156 271.503906 41.371094 271.445312 42.460938 C 242.207031 40.914062 212.949219 39.976562 183.664062 39.640625 C 153.488281 39.296875 123.3125 39.601562 93.140625 40.550781 C 86.023438 40.777344 78.910156 41.035156 71.796875 41.335938 L 42.203125 41.148438 C 42.214844 40.875 42.21875 40.597656 42.230469 40.324219 C 42.261719 39.332031 40.722656 39.335938 40.6875 40.324219 C 40.679688 40.59375 40.671875 40.867188 40.664062 41.140625 L 39.679688 41.132812 C 39.492188 40.304688 38.125 40.355469 38.160156 41.289062 L 38.167969 41.414062 C 38.0625 41.570312 38.011719 41.738281 38.019531 41.925781 C 38.027344 42.113281 38.089844 42.277344 38.207031 42.421875 C 38.859375 58.621094 39.515625 74.820312 40.167969 91.019531 L 40.613281 102.003906 L 38.761719 101.992188 C 37.769531 101.988281 37.769531 103.527344 38.761719 103.53125 C 39.398438 103.535156 40.035156 103.539062 40.675781 103.542969 L 40.730469 104.988281 C 40.769531 105.910156 42.109375 105.976562 42.257812 105.171875 C 52.101562 104.625 61.949219 104.148438 71.800781 103.738281 L 130.847656 104.109375 C 161.386719 104.300781 191.925781 104.492188 222.460938 104.683594 C 238.535156 104.785156 254.605469 104.882812 270.679688 104.984375 C 270.679688 105.046875 270.683594 105.109375 270.683594 105.175781 C 270.714844 106.164062 272.199219 106.167969 272.222656 105.175781 L 272.230469 104.996094 L 274.144531 105.007812 C 275.140625 105.011719 275.128906 103.523438 274.144531 103.46875 C 273.519531 103.433594 272.898438 103.402344 272.273438 103.371094 C 272.71875 87.113281 273.164062 70.855469 273.609375 54.597656 C 273.707031 51.113281 273.800781 47.625 273.898438 44.136719 Z M 40.304688 56.265625 L 40.265625 55.257812 C 40.097656 51.0625 39.925781 46.867188 39.757812 42.671875 L 40.617188 42.675781 C 40.484375 47.207031 40.378906 51.738281 40.304688 56.265625 Z M 132.535156 41.21875 C 162.710938 40.828125 192.886719 41.085938 223.058594 41.992188 C 226.71875 42.101562 230.378906 42.21875 234.039062 42.351562 L 182.058594 42.023438 C 158.664062 41.878906 135.269531 41.730469 111.875 41.585938 C 118.761719 41.429688 125.648438 41.304688 132.535156 41.21875 Z M 42.15625 42.6875 C 42.636719 42.691406 43.113281 42.691406 43.589844 42.695312 C 43.109375 42.722656 42.632812 42.746094 42.15625 42.773438 C 42.15625 42.746094 42.15625 42.714844 42.15625 42.6875 Z M 42.230469 103.636719 C 42.230469 103.609375 42.226562 103.582031 42.226562 103.554688 C 42.679688 103.558594 43.132812 103.558594 43.585938 103.5625 C 43.136719 103.585938 42.683594 103.613281 42.230469 103.636719 Z M 182.058594 102.890625 C 158.664062 102.746094 135.269531 102.597656 111.875 102.453125 C 118.757812 102.296875 125.644531 102.171875 132.53125 102.082031 C 162.707031 101.695312 192.882812 101.953125 223.058594 102.859375 C 226.71875 102.96875 230.378906 103.085938 234.039062 103.21875 Z M 270.378906 90.695312 C 270.425781 94.890625 270.507812 99.089844 270.628906 103.28125 C 241.664062 101.765625 212.675781 100.839844 183.664062 100.507812 C 153.488281 100.164062 123.3125 100.46875 93.140625 101.417969 C 86.023438 101.640625 78.910156 101.902344 71.796875 102.199219 L 42.179688 102.015625 C 41.695312 86.195312 41.597656 70.367188 41.875 54.535156 C 41.933594 51.128906 42.011719 47.722656 42.109375 44.3125 C 52.003906 43.765625 61.902344 43.285156 71.804688 42.871094 L 130.847656 43.242188 C 161.386719 43.433594 191.925781 43.625 222.464844 43.816406 L 271.355469 44.121094 C 270.53125 59.632812 270.207031 75.15625 270.378906 90.695312 Z M 270.378906 90.695312 " fill-opacity="1" fill-rule="nonzero"/>
    </g>
    <!-- <g clip-path="url(#200d403186)"><path fill="#161212" d="M 273.898438 132.703125 C 273.980469 132.703125 274.0625 132.703125 274.144531 132.703125 C 275.140625 132.710938 275.128906 131.21875 274.144531 131.164062 C 274.074219 131.160156 274.007812 131.15625 273.941406 131.15625 C 273.960938 130.40625 273.980469 129.660156 274 128.910156 C 274.015625 128.371094 273.566406 128.128906 273.148438 128.175781 C 273.15625 128.039062 273.164062 127.898438 273.171875 127.761719 C 273.230469 126.773438 271.691406 126.777344 271.632812 127.761719 C 271.566406 128.847656 271.503906 129.933594 271.445312 131.023438 C 242.207031 129.480469 212.949219 128.539062 183.664062 128.203125 C 153.488281 127.859375 123.3125 128.164062 93.140625 129.113281 C 86.023438 129.339844 78.910156 129.601562 71.796875 129.898438 L 42.203125 129.710938 C 42.214844 129.4375 42.21875 129.160156 42.230469 128.886719 C 42.261719 127.894531 40.722656 127.898438 40.6875 128.886719 C 40.679688 129.160156 40.671875 129.429688 40.664062 129.703125 L 39.679688 129.695312 C 39.492188 128.871094 38.125 128.917969 38.160156 129.851562 L 38.167969 129.976562 C 38.0625 130.132812 38.011719 130.304688 38.019531 130.488281 C 38.027344 130.675781 38.089844 130.839844 38.207031 130.988281 C 38.859375 147.1875 39.515625 163.382812 40.167969 179.582031 L 40.613281 190.570312 L 38.761719 190.558594 C 37.769531 190.550781 37.769531 192.089844 38.761719 192.09375 C 39.398438 192.101562 40.035156 192.105469 40.675781 192.109375 L 40.730469 193.550781 C 40.769531 194.472656 42.109375 194.539062 42.257812 193.734375 C 52.101562 193.191406 61.949219 192.710938 71.800781 192.300781 L 130.847656 192.671875 C 161.386719 192.863281 191.925781 193.054688 222.460938 193.246094 C 238.535156 193.347656 254.605469 193.449219 270.679688 193.546875 C 270.679688 193.613281 270.683594 193.675781 270.683594 193.738281 C 270.714844 194.726562 272.199219 194.730469 272.222656 193.738281 L 272.230469 193.558594 L 274.144531 193.570312 C 275.140625 193.578125 275.128906 192.085938 274.144531 192.03125 C 273.519531 192 272.898438 191.964844 272.273438 191.933594 C 272.71875 175.675781 273.164062 159.417969 273.609375 143.164062 C 273.707031 139.675781 273.800781 136.1875 273.898438 132.703125 Z M 40.304688 144.832031 L 40.265625 143.824219 C 40.097656 139.625 39.925781 135.429688 39.757812 131.234375 L 40.617188 131.242188 C 40.484375 135.769531 40.378906 140.300781 40.304688 144.832031 Z M 132.535156 129.78125 C 162.710938 129.390625 192.886719 129.652344 223.058594 130.554688 C 226.71875 130.664062 230.378906 130.785156 234.039062 130.914062 L 182.058594 130.589844 C 158.664062 130.441406 135.269531 130.296875 111.875 130.148438 C 118.761719 129.992188 125.648438 129.871094 132.535156 129.78125 Z M 42.15625 131.25 C 42.636719 131.253906 43.113281 131.257812 43.589844 131.257812 C 43.109375 131.285156 42.632812 131.308594 42.15625 131.335938 C 42.15625 131.308594 42.15625 131.277344 42.15625 131.25 Z M 42.230469 192.199219 C 42.230469 192.171875 42.226562 192.144531 42.226562 192.117188 C 42.679688 192.121094 43.132812 192.121094 43.585938 192.125 C 43.136719 192.152344 42.683594 192.175781 42.230469 192.199219 Z M 182.058594 191.453125 C 158.664062 191.308594 135.269531 191.160156 111.875 191.015625 C 118.757812 190.859375 125.644531 190.738281 132.53125 190.648438 C 162.707031 190.257812 192.882812 190.515625 223.058594 191.421875 C 226.71875 191.53125 230.378906 191.652344 234.039062 191.78125 Z M 270.378906 179.257812 C 270.425781 183.457031 270.507812 187.652344 270.628906 191.847656 C 241.664062 190.328125 212.675781 189.402344 183.664062 189.070312 C 153.488281 188.726562 123.3125 189.03125 93.140625 189.980469 C 86.023438 190.207031 78.910156 190.464844 71.796875 190.765625 L 42.179688 190.578125 C 41.695312 174.757812 41.597656 158.929688 41.875 143.101562 C 41.933594 139.691406 42.011719 136.285156 42.109375 132.878906 C 52.003906 132.328125 61.902344 131.847656 71.804688 131.4375 L 130.847656 131.804688 C 161.386719 131.996094 191.925781 132.1875 222.464844 132.378906 L 271.355469 132.6875 C 270.53125 148.195312 270.207031 163.71875 270.378906 179.257812 Z M 270.378906 179.257812 " fill-opacity="1" fill-rule="nonzero"/>
    </g> -->
    </svg>