<svg xmlns="http://www.w3.org/2000/svg" version="1.1" xmlns:xlink="http://www.w3.org/1999/xlink"
  xmlns:svgjs="http://svgjs.dev/svgjs" viewBox="0 0 800 800" opacity="1">
  <defs>
    <linearGradient x1="50%" y1="120%" x2="50%" y2="100%" id="nnneon-grad">
      <stop stop-color="hsv(4, 92%, 100%)" stop-opacity="1" offset="0%"></stop>
      <stop stop-color="hsl(331, 87%, 61%)" stop-opacity="1" offset="100%"></stop>
    </linearGradient>
    <filter id="nnneon-filter" x="-100%" y="-100%" width="400%" height="400%" filterUnits="objectBoundingBox"
      primitiveUnits="userSpaceOnUse" color-interpolation-filters="sRGB">
      <feGaussianBlur stdDeviation="28 28" x="0%" y="0%" width="100%" height="100%" in="SourceGraphic" edgeMode="none"
        result="blur"></feGaussianBlur>
    </filter>
    <filter id="nnneon-filter2" x="-100%" y="-100%" width="400%" height="400%" filterUnits="objectBoundingBox"
      primitiveUnits="userSpaceOnUse" color-interpolation-filters="sRGB">
      <feGaussianBlur stdDeviation="10 22" x="0%" y="0%" width="100%" height="100%" in="SourceGraphic" edgeMode="none"
        result="blur"></feGaussianBlur>
    </filter>
  </defs>
  <g stroke-width="12" stroke="url(#nnneon-grad)" fill="none">
    <path
      d="M400 203.701171875L570.0000108628903 301.8505807824761V498.1493985974282L400 596.2988075049043L229.9999891371097 498.1493985974282V301.8505807824761L400 203.701171875Z "
      filter="url(#nnneon-filter)"></path>
    <path
      d="M400 203.701171875L570.0000108628903 301.8505807824761V498.1493985974282L400 596.2988075049043L229.9999891371097 498.1493985974282V301.8505807824761L400 203.701171875Z "
      filter="url(#nnneon-filter2)" opacity="0.3"></path>
    <path
      d="M400 203.701171875L570.0000108628903 301.8505807824761V498.1493985974282L400 596.2988075049043L229.9999891371097 498.1493985974282V301.8505807824761L400 203.701171875Z "
      filter="url(#nnneon-filter2)" opacity="0.3"></path>
    <path
      d="M400 203.701171875L570.0000108628903 301.8505807824761V498.1493985974282L400 596.2988075049043L229.9999891371097 498.1493985974282V301.8505807824761L400 203.701171875Z ">
    </path>
  </g>
</svg>