<svg xmlns="http://www.w3.org/2000/svg" xmlns:xlink="http://www.w3.org/1999/xlink" width="952" zoomAndPan="magnify" viewBox="0 0 714 97.5" height="130" preserveAspectRatio="xMidYMid meet" version="1.0">
<!-- J'sais pas ce que c'est -->
<defs>
  <clipPath id="e4e66a0592">
    <path d="M 1.820312 0 L 712.175781 0 L 712.175781 97.003906 L 1.820312 97.003906 Z M 1.820312 0 " clip-rule="nonzero"/>
  </clipPath>
  <clipPath id="0088b8f6f2">
    <path d="M 287.996094 37.5 L 310.804688 37.5 L 310.804688 59.132812 L 287.996094 59.132812 Z M 287.996094 37.5 " clip-rule="nonzero"/>
  </clipPath><clipPath id="df1f3238c0">
    <path d="M 287.996094 37.5 L 299.554688 37.5 L 299.554688 59.132812 L 287.996094 59.132812 Z M 287.996094 37.5 " clip-rule="nonzero"/>
  </clipPath><clipPath id="6d93ce3fef">
    <path d="M 316.585938 37.5 L 339.699219 37.5 L 339.699219 59.132812 L 316.585938 59.132812 Z M 316.585938 37.5 " clip-rule="nonzero"/>
  </clipPath>
  <clipPath id="70c37ef794">
    <path d="M 316.585938 37.5 L 328.445312 37.5 L 328.445312 59.132812 L 316.585938 59.132812 Z M 316.585938 37.5 " clip-rule="nonzero"/>
  </clipPath>
  <clipPath id="58d2cef217">
    <path d="M 345.476562 37.5 L 368.589844 37.5 L 368.589844 59.132812 L 345.476562 59.132812 Z M 345.476562 37.5 " clip-rule="nonzero"/></clipPath>
    <clipPath id="06edcc6ca1"><path d="M 345.476562 37.5 L 357.035156 37.5 L 357.035156 59.132812 L 345.476562 59.132812 Z M 345.476562 37.5 " clip-rule="nonzero"/>
    </clipPath>
    <clipPath id="c9a591a349"><path d="M 374.371094 37.5 L 397.484375 37.5 L 397.484375 59.132812 L 374.371094 59.132812 Z M 374.371094 37.5 " clip-rule="nonzero"/>
    </clipPath>
    <clipPath id="73c88d7bd4"><path d="M 374.371094 37.5 L 385.925781 37.5 L 385.925781 59.132812 L 374.371094 59.132812 Z M 374.371094 37.5 " clip-rule="nonzero"/>
    </clipPath>
    <clipPath id="1f5edcb95a"><path d="M 403.261719 37.5 L 426.070312 37.5 L 426.070312 59.132812 L 403.261719 59.132812 Z M 403.261719 37.5 " clip-rule="nonzero"/>
    </clipPath>
    <clipPath id="1ef38ad6ec"><path d="M 403.261719 37.5 L 414.820312 37.5 L 414.820312 59.132812 L 403.261719 59.132812 Z M 403.261719 37.5 " clip-rule="nonzero"/>
    </clipPath>
    <clipPath id="a6ea006d5a"><path d="M 251.015625 52.503906 L 252 52.503906 L 252 52.894531 L 251.015625 52.894531 Z M 251.015625 52.503906 " clip-rule="nonzero"/>
    </clipPath>
    <clipPath id="2e812a40b0"><path d="M 219 52.503906 L 220.417969 52.503906 L 220.417969 52.894531 L 219 52.894531 Z M 219 52.503906 " clip-rule="nonzero"/>
    </clipPath>
    <clipPath id="5e4851ef82"><path d="M 214 52.503906 L 214.988281 52.503906 L 214.988281 52.894531 L 214 52.894531 Z M 214 52.503906 " clip-rule="nonzero"/>
    </clipPath>
    <clipPath id="19dc203ddd"><path d="M 215.480469 52.503906 L 216.46875 52.503906 L 216.46875 52.894531 L 215.480469 52.894531 Z M 215.480469 52.503906 " clip-rule="nonzero"/>
    </clipPath>
    <clipPath id="87963a64c2"><path d="M 48.675781 52.503906 L 49.664062 52.503906 L 49.664062 52.894531 L 48.675781 52.894531 Z M 48.675781 52.503906 " clip-rule="nonzero"/>
    </clipPath>
    <clipPath id="aeef8c5751"><path d="M 39.300781 50.003906 L 275.839844 50.003906 L 275.839844 52.894531 L 39.300781 52.894531 Z M 39.300781 50.003906 " clip-rule="nonzero"/>
    </clipPath>
    <clipPath id="81ee105198"><path d="M 649 52.503906 L 649.980469 52.503906 L 649.980469 52.894531 L 649 52.894531 Z M 649 52.503906 " clip-rule="nonzero"/>
    </clipPath>
    <clipPath id="cfa2c13d47"><path d="M 617 52.503906 L 618.398438 52.503906 L 618.398438 52.894531 L 617 52.894531 Z M 617 52.503906 " clip-rule="nonzero"/>
    </clipPath>
    <clipPath id="1f8c58f281"><path d="M 612 52.503906 L 612.96875 52.503906 L 612.96875 52.894531 L 612 52.894531 Z M 612 52.503906 " clip-rule="nonzero"/>
    </clipPath>
    <clipPath id="c7d3c3917c"><path d="M 613.460938 52.503906 L 614.449219 52.503906 L 614.449219 52.894531 L 613.460938 52.894531 Z M 613.460938 52.503906 " clip-rule="nonzero"/>
    </clipPath>
    <clipPath id="24e59f2fca"><path d="M 446.65625 52.503906 L 447.644531 52.503906 L 447.644531 52.894531 L 446.65625 52.894531 Z M 446.65625 52.503906 " clip-rule="nonzero"/>
    </clipPath>
    <clipPath id="5521c88875"><path d="M 437.28125 50.003906 L 673.816406 50.003906 L 673.816406 52.894531 L 437.28125 52.894531 Z M 437.28125 50.003906 " clip-rule="nonzero"/>
    </clipPath>
    </defs>
    <!-- Background -->
      <!-- <g clip-path="url(#e4e66a0592)">
        <path fill="#ffffff" d="M 1.820312 0 L 712.179688 0 L 712.179688 104.464844 L 1.820312 104.464844 Z M 1.820312 0 " fill-opacity="1" fill-rule="nonzero"/><path fill="#ffffff" d="M 1.820312 0 L 712.179688 0 L 712.179688 97.003906 L 1.820312 97.003906 Z M 1.820312 0 " fill-opacity="1" fill-rule="nonzero"/>
      </g> -->

      <!-- Etoiles -->
        <g clip-path="url(#0088b8f6f2)">
          <path fill="#ffcf06" d="M 292.335938 59.121094 L 294.066406 51.175781 L 287.996094 45.75 L 296.101562 44.941406 L 299.394531 37.5 L 302.671875 44.945312 L 310.78125 45.773438 L 305.078125 51.308594 L 306.417969 59.132812 L 299.378906 55.03125 L 292.335938 59.121094 " fill-opacity="1" fill-rule="nonzero"/>
        </g>
          <g clip-path="url(#df1f3238c0)"><path fill="#fdc408" d="M 292.335938 59.121094 L 294.066406 51.175781 L 287.996094 45.75 L 296.101562 44.941406 L 299.382812 37.53125 L 299.382812 55.035156 L 299.378906 55.03125 L 292.335938 59.121094 " fill-opacity="1" fill-rule="nonzero"/></g><g clip-path="url(#6d93ce3fef)"><path fill="#ffcf06" d="M 321.15625 59.121094 L 322.890625 51.175781 L 316.820312 45.75 L 324.925781 44.941406 L 328.21875 37.5 L 331.496094 44.945312 L 339.601562 45.773438 L 333.902344 51.308594 L 335.238281 59.132812 L 328.203125 55.03125 L 321.15625 59.121094 " fill-opacity="1" fill-rule="nonzero"/></g><g clip-path="url(#70c37ef794)"><path fill="#fdc408" d="M 321.15625 59.121094 L 322.890625 51.175781 L 316.820312 45.75 L 324.925781 44.941406 L 328.207031 37.53125 L 328.207031 55.035156 L 328.203125 55.03125 L 321.15625 59.121094 " fill-opacity="1" fill-rule="nonzero"/></g><g clip-path="url(#58d2cef217)"><path fill="#ffcf06" d="M 349.980469 59.121094 L 351.714844 51.175781 L 345.640625 45.75 L 353.75 44.941406 L 357.039062 37.5 L 360.320312 44.945312 L 368.425781 45.773438 L 362.722656 51.308594 L 364.0625 59.132812 L 357.027344 55.03125 L 349.980469 59.121094 " fill-opacity="1" fill-rule="nonzero"/></g><g clip-path="url(#06edcc6ca1)"><path fill="#fdc408" d="M 349.980469 59.121094 L 351.714844 51.175781 L 345.640625 45.75 L 353.75 44.941406 L 357.027344 37.53125 L 357.027344 55.035156 L 357.027344 55.03125 L 349.980469 59.121094 " fill-opacity="1" fill-rule="nonzero"/></g><g clip-path="url(#c9a591a349)"><path fill="#ffcf06" d="M 378.804688 59.121094 L 380.539062 51.175781 L 374.464844 45.75 L 382.574219 44.941406 L 385.863281 37.5 L 389.140625 44.945312 L 397.25 45.773438 L 391.546875 51.308594 L 392.886719 59.132812 L 385.847656 55.03125 L 378.804688 59.121094 " fill-opacity="1" fill-rule="nonzero"/></g><g clip-path="url(#73c88d7bd4)"><path fill="#fdc408" d="M 378.804688 59.121094 L 380.539062 51.175781 L 374.464844 45.75 L 382.574219 44.941406 L 385.851562 37.53125 L 385.851562 55.035156 L 385.847656 55.03125 L 378.804688 59.121094 " fill-opacity="1" fill-rule="nonzero"/></g><g clip-path="url(#1f5edcb95a)"><path fill="#ffcf06" d="M 407.628906 59.121094 L 409.359375 51.175781 L 403.289062 45.75 L 411.394531 44.941406 L 414.6875 37.5 L 417.964844 44.945312 L 426.070312 45.773438 L 420.371094 51.308594 L 421.707031 59.132812 L 414.671875 55.03125 L 407.628906 59.121094 " fill-opacity="1" fill-rule="nonzero"/></g><g clip-path="url(#1ef38ad6ec)"><path fill="#fdc408" d="M 407.628906 59.121094 L 409.359375 51.175781 L 403.289062 45.75 L 411.394531 44.941406 L 414.675781 37.53125 L 414.675781 55.035156 L 414.671875 55.03125 L 407.628906 59.121094 " fill-opacity="1" fill-rule="nonzero"/></g><g clip-path="url(#a6ea006d5a)"><path fill="#000000" d="M 251.503906 52.894531 L 251.8125 52.894531 C 251.816406 52.882812 251.859375 52.871094 251.90625 52.863281 C 251.671875 52.832031 251.644531 52.867188 251.503906 52.894531 " fill-opacity="1" fill-rule="evenodd"/></g><g clip-path="url(#2e812a40b0)"><path fill="#000000" d="M 219.199219 52.894531 L 220.140625 52.894531 C 220.144531 52.894531 220.148438 52.894531 220.152344 52.890625 C 219.878906 52.871094 219.582031 52.917969 219.3125 52.867188 C 219.257812 52.878906 219.222656 52.886719 219.199219 52.894531 " fill-opacity="1" fill-rule="evenodd"/></g><g clip-path="url(#5e4851ef82)"><path fill="#000000" d="M 214.257812 52.894531 L 214.746094 52.894531 C 214.558594 52.878906 214.382812 52.875 214.257812 52.894531 " fill-opacity="1" fill-rule="evenodd"/></g><g clip-path="url(#19dc203ddd)"><path fill="#000000" d="M 215.816406 52.894531 L 216.160156 52.894531 C 216.066406 52.890625 215.96875 52.886719 215.839844 52.882812 C 215.828125 52.886719 215.820312 52.890625 215.816406 52.894531 " fill-opacity="1" fill-rule="evenodd"/></g><path fill="#000000" d="M 236.496094 50.003906 L 236.007812 50.003906 C 236.039062 50.015625 236.050781 50.027344 236.019531 50.050781 C 236.171875 50.054688 236.335938 50.027344 236.496094 50.003906 " fill-opacity="1" fill-rule="evenodd"/><path fill="#000000" d="M 224.148438 50.0625 C 225.144531 50 226.761719 50.078125 227.996094 50.097656 C 228.261719 50.070312 228.019531 50.035156 228.171875 50.003906 L 225.417969 50.003906 C 225.410156 50.007812 225.40625 50.007812 225.398438 50.011719 C 225.378906 50.007812 225.363281 50.007812 225.347656 50.003906 L 223.03125 50.003906 C 223.40625 50.015625 223.78125 50.03125 224.148438 50.0625 " fill-opacity="1" fill-rule="evenodd"/><path fill="#000000" d="M 257.296875 50.011719 C 257.304688 50.007812 257.316406 50.007812 257.324219 50.003906 L 257.230469 50.003906 C 257.253906 50.007812 257.273438 50.007812 257.296875 50.011719 " fill-opacity="1" fill-rule="evenodd"/><path fill="#000000" d="M 236.707031 50.074219 C 236.949219 50.117188 237.167969 50.046875 237.109375 50.003906 L 237.070312 50.003906 C 237.046875 50.027344 236.769531 50.050781 236.707031 50.074219 " fill-opacity="1" fill-rule="evenodd"/><g clip-path="url(#87963a64c2)"><path fill="#000000" d="M 49.421875 52.804688 C 49.160156 52.804688 48.636719 52.832031 48.691406 52.894531 L 48.914062 52.894531 C 49.089844 52.867188 49.3125 52.835938 49.421875 52.804688 " fill-opacity="1" fill-rule="evenodd"/>
          </g>

          <!-- Premier separateur -->
          <g clip-path="url(#aeef8c5751)">
            <path fill="#000000" d="M 272.921875 51.980469 C 273.082031 52 273.015625 51.957031 273.167969 51.933594 C 273.375 52.035156 273.640625 51.886719 273.847656 51.988281 C 273.566406 52.070312 272.917969 52.03125 272.921875 51.980469 Z M 262.179688 51.488281 C 262.386719 51.484375 262.601562 51.433594 262.796875 51.492188 C 262.445312 51.570312 262.222656 51.492188 262.179688 51.488281 Z M 252.828125 51.921875 C 253.082031 51.929688 253.351562 51.878906 253.597656 51.929688 C 253.375 51.972656 252.765625 52 252.828125 51.921875 Z M 251.691406 50.886719 C 251.726562 50.828125 252.214844 50.832031 252.457031 50.894531 C 252.1875 50.957031 251.941406 50.917969 251.691406 50.886719 Z M 252.289062 52.554688 C 252.222656 52.542969 251.804688 52.550781 251.976562 52.582031 C 252.238281 52.566406 252.488281 52.578125 252.734375 52.621094 C 252.519531 52.671875 252.324219 52.632812 252.128906 52.582031 C 251.878906 52.625 251.441406 52.597656 251.410156 52.683594 C 250.925781 52.613281 250.292969 52.753906 250.042969 52.609375 C 249.980469 52.703125 249.453125 52.695312 249.183594 52.648438 C 249.929688 52.632812 249.820312 52.523438 250.539062 52.457031 C 250.8125 52.585938 250.820312 52.445312 250.976562 52.554688 C 251.371094 52.535156 252.175781 52.476562 252.289062 52.554688 Z M 253.292969 52.546875 C 253.410156 52.621094 252.847656 52.617188 253.109375 52.667969 C 252.949219 52.695312 252.792969 52.707031 252.640625 52.695312 C 252.996094 52.648438 252.800781 52.5 253.292969 52.546875 Z M 247.792969 52.664062 C 247.671875 52.636719 247.550781 52.609375 247.429688 52.582031 C 247.117188 52.585938 246.792969 52.675781 246.496094 52.605469 C 246.660156 52.507812 247.371094 52.496094 247.75 52.523438 C 247.679688 52.5 247.796875 52.496094 247.914062 52.496094 C 247.660156 52.488281 247.414062 52.417969 247.160156 52.425781 C 246.753906 52.511719 246.351562 52.574219 245.988281 52.492188 C 246.605469 52.5 246.457031 52.429688 246.703125 52.390625 C 246.699219 52.46875 247.003906 52.421875 247.171875 52.363281 C 247.375 52.371094 247.453125 52.386719 247.464844 52.429688 C 248.023438 52.359375 248.535156 52.472656 249.089844 52.398438 C 249.328125 52.4375 249.035156 52.535156 249.464844 52.449219 C 249.722656 52.496094 249.703125 52.621094 249.28125 52.570312 C 249.371094 52.550781 249.449219 52.53125 249.296875 52.507812 C 249.199219 52.683594 248.3125 52.621094 247.792969 52.664062 Z M 246.144531 52.789062 C 246.378906 52.800781 247.015625 52.785156 246.980469 52.84375 C 246.746094 52.84375 246.105469 52.867188 246.144531 52.789062 Z M 245.652344 50.6875 C 245.945312 50.644531 246.21875 50.671875 246.496094 50.714844 C 246.195312 50.773438 245.929688 50.707031 245.652344 50.6875 Z M 244.738281 52.542969 C 244.851562 52.523438 244.957031 52.503906 245.066406 52.484375 C 245.253906 52.550781 245.457031 52.550781 245.679688 52.488281 C 245.753906 52.503906 245.824219 52.519531 245.898438 52.535156 C 245.5 52.589844 245.125 52.550781 244.738281 52.542969 Z M 250.371094 50.921875 C 250.074219 50.878906 249.753906 50.9375 249.464844 50.851562 C 249.734375 50.8125 250.382812 50.847656 250.371094 50.921875 Z M 243.453125 52.449219 C 243.722656 52.40625 243.972656 52.421875 244.214844 52.488281 C 243.949219 52.523438 243.707031 52.46875 243.453125 52.449219 Z M 243.277344 52.542969 C 243.15625 52.515625 243.035156 52.488281 242.914062 52.460938 C 242.375 52.53125 242.261719 52.464844 241.667969 52.511719 C 241.828125 52.480469 241.570312 52.449219 241.84375 52.421875 C 242.136719 52.484375 242.453125 52.453125 242.765625 52.429688 C 242.652344 52.375 242.636719 52.324219 242.957031 52.277344 C 243.183594 52.300781 243.410156 52.308594 243.628906 52.359375 C 243.386719 52.410156 243.167969 52.367188 242.921875 52.429688 C 243.035156 52.496094 243.628906 52.464844 243.667969 52.53125 C 243.539062 52.515625 243.410156 52.515625 243.277344 52.542969 Z M 240.839844 52.425781 C 241.164062 52.464844 241.144531 52.363281 241.535156 52.417969 C 241.335938 52.480469 240.75 52.511719 240.839844 52.425781 Z M 244.109375 50.707031 C 244.082031 50.769531 243.636719 50.78125 243.402344 50.746094 C 243.429688 50.667969 243.867188 50.691406 244.109375 50.707031 Z M 239.347656 50.628906 C 239.121094 50.609375 238.875 50.667969 238.660156 50.605469 C 238.863281 50.5 239.660156 50.648438 239.347656 50.628906 Z M 239.148438 52.410156 C 238.785156 52.417969 238.433594 52.386719 238.082031 52.367188 C 238.417969 52.304688 239.339844 52.292969 239.148438 52.410156 Z M 237.304688 52.390625 C 237.441406 52.328125 237.703125 52.3125 238.007812 52.351562 C 237.765625 52.378906 237.535156 52.382812 237.304688 52.390625 Z M 236.371094 52.738281 C 236.617188 52.796875 236.898438 52.6875 237.140625 52.746094 C 236.917969 52.796875 236.308594 52.820312 236.371094 52.738281 Z M 236.222656 52.410156 C 236.085938 52.4375 235.957031 52.4375 235.832031 52.421875 C 236.101562 52.375 236.359375 52.363281 236.609375 52.398438 C 236.476562 52.417969 236.335938 52.460938 236.214844 52.441406 C 236.257812 52.433594 236.296875 52.421875 236.222656 52.410156 Z M 234.835938 50.476562 C 235.257812 50.4375 235.652344 50.511719 236.070312 50.488281 C 235.90625 50.585938 235.214844 50.515625 234.835938 50.476562 Z M 236.484375 52.273438 C 236.628906 52.308594 236.796875 52.253906 236.9375 52.308594 C 236.855469 52.324219 236.777344 52.339844 236.695312 52.355469 C 236.503906 52.316406 236.3125 52.332031 236.484375 52.273438 Z M 231.304688 52.65625 C 232.007812 52.660156 232.320312 52.664062 232.914062 52.6875 C 232.367188 52.738281 231.832031 52.714844 231.304688 52.65625 Z M 230.421875 52.167969 C 230.078125 52.117188 230.527344 52.035156 230.746094 52.109375 C 230.519531 52.148438 230.707031 52.167969 230.421875 52.167969 Z M 227.910156 52.6875 C 227.625 52.636719 227.515625 52.589844 227.863281 52.546875 C 228.101562 52.5625 228.160156 52.644531 228.539062 52.632812 C 228.316406 52.703125 228.125 52.632812 227.910156 52.6875 Z M 221.304688 52.589844 C 221.621094 52.554688 221.929688 52.558594 222.230469 52.601562 C 221.910156 52.636719 221.601562 52.632812 221.304688 52.589844 Z M 219.742188 52.050781 C 219.96875 51.984375 220.296875 52.015625 220.304688 51.945312 C 220.355469 51.957031 220.402344 51.96875 220.453125 51.976562 C 220.503906 51.96875 220.558594 51.964844 220.605469 51.980469 C 220.457031 52.050781 220.066406 52.09375 219.742188 52.050781 Z M 208.195312 52.648438 C 207.84375 52.605469 208.296875 52.511719 208.519531 52.558594 C 208.296875 52.589844 208.480469 52.621094 208.195312 52.648438 Z M 203.027344 52.644531 C 203.367188 52.535156 203.632812 52.707031 203.960938 52.625 C 203.765625 52.585938 203.578125 52.601562 203.75 52.542969 C 204.089844 52.546875 203.929688 52.613281 204.261719 52.65625 C 204.613281 52.582031 204.917969 52.703125 205.269531 52.621094 C 205.070312 52.605469 204.859375 52.621094 204.667969 52.554688 C 204.835938 52.511719 204.980469 52.550781 205.148438 52.496094 C 205.421875 52.519531 205.058594 52.617188 205.433594 52.589844 C 205.664062 52.558594 205.210938 52.515625 205.535156 52.484375 C 205.691406 52.476562 205.839844 52.492188 205.988281 52.519531 C 205.960938 52.566406 205.636719 52.609375 205.722656 52.65625 C 205.90625 52.648438 206.078125 52.6875 206.253906 52.707031 C 205.171875 52.71875 204.089844 52.722656 203.027344 52.644531 Z M 202.195312 52.589844 C 202.273438 52.523438 202.660156 52.582031 202.605469 52.488281 C 202.980469 52.535156 202.417969 52.640625 202.195312 52.589844 Z M 201.347656 52.597656 C 201.363281 52.53125 201.75 52.554688 201.992188 52.480469 C 202.066406 52.496094 202.136719 52.511719 202.210938 52.527344 C 201.914062 52.578125 201.617188 52.648438 201.347656 52.597656 Z M 197.113281 52.570312 C 197.367188 52.519531 197.40625 52.402344 197.832031 52.472656 C 197.589844 52.53125 197.417969 52.582031 197.875 52.609375 C 197.613281 52.640625 197.359375 52.625 197.113281 52.570312 Z M 192.414062 52.574219 C 192.273438 52.523438 192.121094 52.519531 191.953125 52.570312 C 191.671875 52.472656 192.492188 52.367188 192.914062 52.421875 C 192.445312 52.484375 192.46875 52.488281 192.414062 52.574219 Z M 82.902344 50.09375 C 82.992188 50.054688 83.070312 50.027344 83.226562 50.035156 C 83.140625 50.054688 83.253906 50.074219 83.363281 50.097656 C 83.199219 50.132812 83.046875 50.128906 82.902344 50.09375 Z M 57.917969 52.40625 C 57.523438 52.480469 56.714844 52.542969 56.097656 52.589844 C 55.863281 52.535156 56.050781 52.488281 56.289062 52.4375 C 56.664062 52.398438 57.203125 52.40625 57.777344 52.34375 C 57.851562 52.363281 58 52.386719 57.917969 52.40625 Z M 54.019531 52.585938 C 53.894531 52.554688 53.828125 52.523438 53.886719 52.492188 C 54.40625 52.480469 54.933594 52.429688 55.441406 52.445312 C 54.964844 52.5 54.496094 52.527344 54.019531 52.585938 Z M 51.675781 52.71875 C 52.355469 52.640625 52.9375 52.613281 53.273438 52.484375 C 53.371094 52.507812 53.46875 52.527344 53.566406 52.550781 C 53.101562 52.582031 52.535156 52.785156 51.675781 52.71875 Z M 45.996094 52.632812 C 45.777344 52.589844 46.039062 52.550781 46.023438 52.507812 C 46.199219 52.53125 46.386719 52.496094 46.554688 52.558594 C 46.363281 52.59375 46.191406 52.574219 45.996094 52.632812 Z M 275.855469 51.976562 C 275.851562 51.886719 275.472656 51.914062 275.3125 51.988281 C 274.96875 51.941406 275.675781 51.894531 275.179688 51.890625 C 275.429688 51.847656 275.964844 51.835938 275.597656 51.757812 C 275.375 51.753906 275.285156 51.792969 275.503906 51.832031 C 275.398438 51.847656 275.300781 51.816406 275.203125 51.800781 C 274.902344 51.832031 274.984375 51.871094 274.792969 51.90625 C 274.332031 51.898438 273.878906 51.867188 273.402344 51.921875 C 272.875 51.757812 272.277344 51.890625 271.726562 51.84375 C 271.785156 51.71875 272.597656 51.808594 272.683594 51.699219 C 271.820312 51.738281 271.328125 51.625 270.367188 51.738281 C 270.148438 51.667969 270.007812 51.609375 269.601562 51.699219 C 269.410156 51.628906 269.53125 51.554688 269.875 51.53125 C 269.757812 51.488281 269.617188 51.535156 269.496094 51.511719 C 269.632812 51.566406 269.128906 51.613281 269.457031 51.667969 C 268.9375 51.582031 268.371094 51.691406 267.839844 51.664062 C 268.554688 51.605469 269.019531 51.542969 269.179688 51.539062 C 268.972656 51.425781 268.039062 51.574219 267.546875 51.601562 C 267.527344 51.519531 266.988281 51.539062 266.710938 51.546875 C 266.640625 51.566406 266.800781 51.589844 266.695312 51.609375 C 266.617188 51.617188 266.542969 51.605469 266.460938 51.621094 C 266.441406 51.59375 266.570312 51.570312 266.402344 51.542969 C 265.765625 51.535156 265.109375 51.59375 264.464844 51.601562 C 264.417969 51.585938 264.46875 51.570312 264.398438 51.554688 C 265.089844 51.527344 265.324219 51.476562 265.964844 51.445312 C 265.445312 51.371094 264.890625 51.425781 264.363281 51.382812 C 264.167969 51.4375 264.59375 51.402344 264.652344 51.449219 C 264.515625 51.488281 264.390625 51.476562 264.257812 51.492188 C 263.914062 51.441406 264.183594 51.367188 263.828125 51.363281 C 263.671875 51.386719 263.746094 51.414062 263.578125 51.4375 C 263.652344 51.453125 263.734375 51.433594 263.8125 51.425781 C 263.980469 51.460938 263.914062 51.585938 264.105469 51.488281 C 264.542969 51.578125 263.992188 51.609375 263.695312 51.59375 C 264.089844 51.550781 263.265625 51.535156 263.570312 51.46875 C 263.371094 51.4375 263.140625 51.546875 262.941406 51.523438 C 262.726562 51.464844 263.285156 51.425781 263.503906 51.421875 C 263.707031 51.382812 263.335938 51.339844 263.535156 51.296875 C 263.261719 51.257812 262.964844 51.324219 262.691406 51.273438 C 262.722656 51.207031 263.011719 51.230469 263.183594 51.15625 C 262.925781 51.0625 262.613281 51.179688 262.351562 51.101562 C 262.199219 51.15625 262.691406 51.132812 262.789062 51.199219 C 262.558594 51.195312 262.324219 51.203125 262.101562 51.175781 C 262.429688 51.242188 262.238281 51.277344 262.136719 51.347656 C 262.058594 51.355469 261.980469 51.34375 261.902344 51.359375 C 261.566406 51.324219 262.105469 51.300781 261.773438 51.265625 C 261.414062 51.363281 259.628906 51.273438 259.792969 51.152344 C 259.574219 51.207031 259.320312 51.175781 259.308594 51.242188 C 258.914062 51.191406 259.195312 51.148438 258.960938 51.097656 C 259.339844 51.117188 259.738281 51.058594 260.117188 51.09375 C 259.898438 51.023438 259.007812 51.007812 258.515625 51.03125 C 258.367188 51 258.640625 50.972656 258.382812 50.9375 C 258.046875 50.984375 257.695312 51.03125 257.226562 50.941406 C 257.164062 51.019531 256.839844 51.007812 257.03125 51.09375 C 256.820312 51.027344 256.507812 51.125 256.121094 51.054688 C 256.320312 51.171875 255.480469 51.097656 255.476562 51.171875 C 254.929688 51.121094 255.820312 51.082031 255.429688 51.03125 C 255.183594 51.09375 254.953125 51.09375 254.730469 51.074219 C 254.707031 51.035156 254.796875 51 254.828125 50.964844 C 255.628906 50.933594 256.382812 50.996094 257 50.925781 C 256.832031 50.863281 256.632812 50.957031 256.46875 50.871094 C 255.429688 51.039062 254.496094 50.753906 253.464844 50.890625 C 252.523438 50.726562 250.699219 50.875 250.269531 50.703125 C 249.964844 50.6875 249.660156 50.683594 249.355469 50.664062 C 249.167969 50.78125 248.65625 50.691406 248.265625 50.714844 C 248.242188 50.6875 248.375 50.664062 248.207031 50.636719 C 248.160156 50.71875 247.609375 50.714844 247.664062 50.648438 C 246.792969 50.734375 245.984375 50.589844 245.125 50.636719 C 245.355469 50.683594 244.921875 50.707031 244.792969 50.726562 C 244.664062 50.691406 245.128906 50.660156 245.050781 50.621094 C 244.351562 50.539062 243.609375 50.632812 242.890625 50.632812 C 242.933594 50.515625 242.074219 50.5 241.902344 50.574219 C 241.761719 50.515625 241.597656 50.554688 241.457031 50.507812 C 241.035156 50.675781 239.507812 50.417969 238.59375 50.558594 C 237.953125 50.378906 236.644531 50.652344 236.148438 50.472656 C 236.375 50.492188 236.613281 50.46875 236.84375 50.464844 C 236.6875 50.378906 235.894531 50.492188 235.304688 50.449219 C 235.066406 50.433594 234.207031 50.328125 234.15625 50.421875 C 233.996094 50.457031 233.863281 50.371094 233.710938 50.355469 C 233.15625 50.410156 232.632812 50.351562 232.078125 50.417969 C 231.457031 50.351562 230.089844 50.359375 229.09375 50.339844 C 222.441406 50.1875 215.777344 50.078125 209.109375 50.003906 L 85.921875 50.003906 C 85.789062 50.046875 85.703125 50.097656 85.441406 50.101562 C 85.398438 50.070312 85.332031 50.035156 85.347656 50.003906 L 85.199219 50.003906 C 85.230469 50.003906 85.269531 50.007812 85.3125 50.007812 C 85.238281 50.050781 85.09375 50.160156 84.746094 50.109375 C 85.289062 50.035156 84.621094 50.050781 84.558594 50.003906 L 83.960938 50.003906 C 83.832031 50.039062 83.761719 50.050781 83.589844 50.113281 C 83.441406 50.078125 83.472656 50.039062 83.484375 50.003906 L 81.324219 50.003906 C 80.570312 50.015625 79.8125 50.050781 79.035156 50.148438 C 78.347656 50.125 77.226562 50.195312 76.765625 50.296875 C 75.269531 50.230469 72.664062 50.617188 70.730469 50.390625 C 71.195312 50.589844 69.570312 50.5 69.660156 50.675781 C 69.253906 50.660156 68.800781 50.839844 68.414062 50.726562 C 66.757812 50.898438 65.136719 50.90625 63.554688 50.757812 C 63.339844 50.804688 63.105469 50.855469 63.210938 50.90625 C 62.949219 50.925781 62.699219 50.898438 62.457031 50.839844 C 62.207031 50.910156 61.984375 50.875 61.753906 50.878906 C 61.640625 50.960938 61.425781 50.949219 61.253906 51.027344 C 61.398438 51.070312 61.570312 51.003906 61.714844 51.03125 C 60.6875 51.140625 59.019531 51.136719 57.800781 50.980469 C 57.636719 51.09375 57.191406 51.117188 56.691406 51.09375 C 55.710938 51.320312 54.449219 51.441406 53.199219 51.523438 C 53.050781 51.492188 52.90625 51.457031 52.757812 51.425781 C 52.878906 51.527344 52.070312 51.5 51.726562 51.554688 C 51.699219 51.535156 51.664062 51.511719 51.742188 51.492188 C 50.628906 51.535156 49.585938 51.558594 48.6875 51.695312 C 47.519531 51.726562 45.949219 51.777344 45.003906 51.953125 C 44.214844 51.9375 42.738281 52.121094 42.097656 52.191406 C 41.042969 52.304688 40.101562 52.398438 39.300781 52.554688 L 39.300781 52.570312 C 39.515625 52.578125 39.539062 52.625 39.671875 52.664062 C 39.542969 52.691406 39.421875 52.691406 39.300781 52.695312 L 39.300781 52.726562 C 39.507812 52.726562 39.644531 52.710938 39.800781 52.757812 C 40.191406 52.648438 40.828125 52.804688 40.972656 52.691406 C 41.160156 52.660156 41.316406 52.753906 41.492188 52.773438 C 41.988281 52.75 42.476562 52.742188 42.964844 52.742188 C 42.585938 52.804688 42.375 52.820312 41.960938 52.894531 L 44.207031 52.894531 C 45.507812 52.859375 46.886719 52.804688 48.140625 52.683594 C 48.351562 52.664062 48.550781 52.6875 48.75 52.71875 C 48.769531 52.695312 48.738281 52.667969 48.691406 52.640625 C 48.921875 52.644531 49.15625 52.617188 49.394531 52.601562 C 49.714844 52.746094 50.625 52.519531 51.054688 52.417969 C 51.273438 52.472656 50.9375 52.519531 50.710938 52.570312 C 50.925781 52.550781 51.25 52.59375 51.230469 52.652344 C 50.839844 52.71875 50.773438 52.660156 50.511719 52.753906 C 50.683594 52.800781 50.898438 52.65625 51.054688 52.742188 C 51.34375 52.714844 51.160156 52.683594 51.382812 52.652344 C 51.488281 52.648438 51.59375 52.640625 51.691406 52.65625 C 51.683594 52.707031 51.34375 52.757812 51.347656 52.808594 C 51.269531 52.820312 51.195312 52.808594 51.113281 52.824219 C 51.300781 52.726562 50.636719 52.800781 50.34375 52.816406 C 50.203125 52.789062 50.289062 52.761719 50.132812 52.734375 C 49.707031 52.761719 49.488281 52.835938 49.238281 52.894531 L 214.039062 52.894531 C 213.988281 52.867188 213.980469 52.84375 213.777344 52.816406 C 213.542969 52.832031 213.292969 52.902344 213.082031 52.824219 C 212.691406 52.980469 211.769531 52.773438 211.140625 52.882812 C 211.207031 52.851562 210.871094 52.816406 211.011719 52.789062 C 210.617188 52.816406 210.21875 52.871094 209.859375 52.757812 C 209.695312 52.800781 209.539062 52.816406 209.386719 52.816406 C 209.371094 52.796875 209.351562 52.777344 209.246094 52.753906 C 209.164062 52.804688 208.746094 52.800781 208.9375 52.75 C 208.6875 52.792969 208.289062 52.78125 207.863281 52.738281 C 207.945312 52.808594 207.742188 52.8125 207.460938 52.816406 C 207.386719 52.792969 207.542969 52.773438 207.625 52.753906 C 207.25 52.726562 206.859375 52.753906 206.476562 52.726562 C 206.792969 52.652344 206.875 52.746094 207.035156 52.652344 C 206.808594 52.636719 206.582031 52.609375 206.347656 52.632812 C 206.273438 52.605469 206.488281 52.582031 206.59375 52.554688 C 206.875 52.558594 207.136719 52.664062 207.4375 52.578125 C 207.09375 52.597656 207.265625 52.472656 206.917969 52.496094 C 206.835938 52.425781 207.132812 52.421875 207.402344 52.410156 C 207.53125 52.445312 207.332031 52.480469 207.300781 52.515625 C 207.589844 52.5625 207.707031 52.484375 207.855469 52.445312 C 208.113281 52.449219 208.375 52.421875 208.617188 52.484375 C 208.050781 52.460938 208.171875 52.578125 207.753906 52.550781 C 207.597656 52.605469 208.238281 52.582031 207.730469 52.644531 C 207.425781 52.691406 207.816406 52.550781 207.511719 52.597656 C 207.097656 52.660156 207.457031 52.632812 207.640625 52.691406 C 207.539062 52.695312 207.433594 52.703125 207.335938 52.6875 C 207.65625 52.746094 208.671875 52.667969 209.253906 52.722656 C 209.113281 52.632812 209.546875 52.707031 209.582031 52.632812 C 209.222656 52.632812 208.863281 52.640625 208.492188 52.683594 C 208.351562 52.476562 209.597656 52.550781 210 52.496094 C 210.554688 52.578125 209.996094 52.652344 210.332031 52.734375 C 210.375 52.628906 210.835938 52.765625 211.113281 52.679688 C 210.871094 52.691406 210.199219 52.648438 210.445312 52.5625 C 210.855469 52.667969 210.859375 52.511719 211.445312 52.589844 C 211.746094 52.636719 211.335938 52.679688 211.640625 52.730469 C 211.773438 52.707031 211.910156 52.679688 212.042969 52.65625 C 211.929688 52.632812 211.820312 52.613281 211.90625 52.59375 C 212.640625 52.523438 213.351562 52.558594 214.078125 52.519531 C 213.867188 52.445312 213.621094 52.5 213.398438 52.46875 C 213.84375 52.417969 214.621094 52.386719 214.773438 52.511719 C 214.574219 52.5 214.363281 52.511719 214.144531 52.566406 C 214.042969 52.625 214.511719 52.589844 214.355469 52.648438 C 214.84375 52.636719 215.28125 52.515625 215.585938 52.660156 C 215.78125 52.597656 215.949219 52.636719 216.128906 52.648438 C 216.128906 52.625 216.304688 52.597656 216.222656 52.574219 C 216.777344 52.632812 217.773438 52.53125 218.054688 52.652344 C 218.390625 52.648438 218.726562 52.625 219.0625 52.617188 C 219.074219 52.640625 219.03125 52.667969 218.96875 52.691406 C 219.25 52.726562 219.1875 52.636719 219.371094 52.617188 C 219.671875 52.671875 219.476562 52.722656 219.335938 52.777344 C 219.679688 52.804688 220.121094 52.777344 220.234375 52.878906 C 220.351562 52.816406 220.070312 52.75 220.429688 52.691406 C 219.960938 52.640625 220.226562 52.828125 219.648438 52.746094 C 219.5625 52.683594 219.691406 52.648438 219.988281 52.625 C 220.585938 52.601562 221.136719 52.757812 221.734375 52.71875 C 221.9375 52.808594 221.472656 52.769531 221.253906 52.808594 C 221.5 52.855469 221.765625 52.808594 222.027344 52.785156 C 222.011719 52.765625 221.996094 52.742188 221.890625 52.722656 C 222.097656 52.707031 222.164062 52.757812 222.203125 52.691406 C 222.625 52.761719 223.101562 52.601562 223.5 52.753906 C 223.566406 52.683594 224.214844 52.679688 224.269531 52.761719 C 224.550781 52.628906 225.273438 52.640625 225.746094 52.695312 C 225.898438 52.675781 225.820312 52.65625 225.917969 52.636719 C 226.308594 52.691406 226.765625 52.648438 226.738281 52.753906 C 226.921875 52.71875 227.113281 52.683594 227.300781 52.648438 C 227.8125 52.707031 227.121094 52.75 227.417969 52.808594 C 227.765625 52.746094 228.09375 52.761719 228.421875 52.800781 C 228.480469 52.75 228.8125 52.699219 228.917969 52.648438 C 229.117188 52.714844 228.523438 52.773438 228.875 52.839844 C 228.910156 52.683594 229.894531 52.703125 230.355469 52.773438 C 230.753906 52.746094 230.726562 52.652344 231.144531 52.6875 C 231.113281 52.742188 230.808594 52.804688 231.277344 52.785156 C 231.332031 52.824219 231.195312 52.859375 230.996094 52.894531 L 231.324219 52.894531 C 231.347656 52.875 231.363281 52.851562 231.496094 52.832031 C 231.757812 52.804688 231.816406 52.847656 231.941406 52.894531 L 232.148438 52.894531 C 232.101562 52.867188 231.964844 52.835938 231.808594 52.804688 C 232.140625 52.824219 232.113281 52.75 232.5 52.828125 C 232.847656 52.800781 232.324219 52.761719 232.675781 52.734375 C 232.992188 52.816406 233.714844 52.800781 234.269531 52.828125 C 234.375 52.789062 233.828125 52.773438 233.664062 52.792969 C 233.585938 52.667969 234.339844 52.691406 234.679688 52.722656 C 234.894531 52.800781 234.140625 52.722656 234.355469 52.78125 C 234.730469 52.867188 234.671875 52.730469 235.054688 52.773438 C 234.59375 52.910156 236.074219 52.777344 236.632812 52.894531 L 236.796875 52.894531 C 237.035156 52.84375 237.539062 52.8125 237.910156 52.753906 C 237.839844 52.890625 239.109375 52.785156 239.300781 52.734375 C 239.410156 52.757812 239.523438 52.78125 239.441406 52.800781 C 239.574219 52.753906 239.882812 52.8125 240.222656 52.746094 C 240.445312 52.863281 240.757812 52.753906 241.308594 52.726562 C 241.414062 52.761719 241.210938 52.796875 241.511719 52.835938 C 242.488281 52.761719 242.984375 52.839844 243.984375 52.800781 C 244.089844 52.839844 243.886719 52.875 244.199219 52.878906 C 244.238281 52.765625 244.652344 52.820312 244.890625 52.894531 L 244.945312 52.894531 C 244.910156 52.8125 245.371094 52.761719 245.757812 52.800781 C 245.875 52.878906 245.273438 52.796875 245.355469 52.875 C 245.40625 52.886719 245.457031 52.890625 245.511719 52.894531 L 245.777344 52.894531 C 245.789062 52.867188 245.75 52.847656 245.976562 52.851562 C 246.03125 52.867188 245.945312 52.878906 245.894531 52.894531 L 246.496094 52.894531 C 246.503906 52.886719 246.515625 52.878906 246.511719 52.871094 C 246.667969 52.859375 246.695312 52.875 246.695312 52.894531 L 246.945312 52.894531 C 247.0625 52.863281 247.289062 52.847656 247.523438 52.835938 C 247.621094 52.910156 247.726562 52.867188 247.921875 52.894531 L 248.066406 52.894531 C 248.152344 52.851562 248.472656 52.863281 248.664062 52.890625 C 248.664062 52.894531 248.664062 52.894531 248.664062 52.894531 L 249.710938 52.894531 C 249.753906 52.882812 249.777344 52.867188 249.757812 52.839844 C 250.027344 52.886719 250.34375 52.75 250.613281 52.800781 C 250.789062 52.863281 250.472656 52.851562 250.234375 52.894531 L 251.046875 52.894531 C 251.347656 52.773438 252.191406 52.851562 252.457031 52.820312 C 252.433594 52.855469 252.28125 52.878906 252.128906 52.894531 L 252.941406 52.894531 C 252.878906 52.882812 252.820312 52.867188 252.757812 52.855469 C 252.917969 52.816406 253.078125 52.800781 253.226562 52.828125 C 252.972656 52.847656 253.175781 52.871094 253.175781 52.894531 L 254.011719 52.894531 C 254.035156 52.894531 254.058594 52.894531 254.082031 52.894531 L 255.820312 52.894531 C 255.996094 52.875 256.160156 52.886719 256.28125 52.894531 L 256.457031 52.894531 C 256.5 52.886719 256.527344 52.875 256.535156 52.84375 C 256.625 52.863281 256.632812 52.878906 256.613281 52.894531 L 257.390625 52.894531 C 257.4375 52.890625 257.480469 52.882812 257.53125 52.871094 C 256.371094 52.78125 255.191406 52.761719 254.015625 52.742188 C 253.683594 52.707031 254.222656 52.679688 253.886719 52.644531 C 253.59375 52.644531 253.675781 52.679688 253.484375 52.71875 C 253.1875 52.65625 253.699219 52.597656 253.988281 52.539062 C 254.644531 52.550781 255.347656 52.695312 256.207031 52.605469 C 256.4375 52.605469 256.65625 52.671875 256.886719 52.660156 C 256.6875 52.589844 256.746094 52.597656 257.203125 52.632812 C 257.476562 52.601562 257.21875 52.570312 257.378906 52.539062 C 257.929688 52.664062 258.085938 52.574219 258.601562 52.582031 C 258.8125 52.617188 258.613281 52.644531 258.886719 52.679688 C 258.867188 52.613281 259.121094 52.570312 259.441406 52.609375 C 259.652344 52.640625 259.035156 52.664062 259.421875 52.699219 C 259.53125 52.667969 259.632812 52.683594 259.726562 52.703125 C 259.742188 52.675781 259.832031 52.652344 259.980469 52.628906 C 260.632812 52.671875 260.957031 52.683594 261.484375 52.769531 C 261.644531 52.636719 261.988281 52.804688 262.339844 52.730469 C 262.488281 52.789062 262.042969 52.746094 261.9375 52.804688 C 262.222656 52.804688 262.507812 52.792969 262.78125 52.828125 C 262.9375 52.816406 263.113281 52.730469 263.257812 52.769531 C 263.175781 52.6875 263.269531 52.695312 263.675781 52.632812 C 263.082031 52.644531 262.859375 52.542969 262.371094 52.605469 C 262.101562 52.53125 262.570312 52.550781 262.320312 52.496094 C 261.996094 52.539062 261.96875 52.585938 262.058594 52.632812 C 261.871094 52.652344 261.695312 52.636719 261.507812 52.671875 C 261.507812 52.570312 261.007812 52.617188 260.746094 52.636719 C 260.566406 52.566406 261.085938 52.582031 261.164062 52.5 C 260.875 52.484375 260.855469 52.511719 260.6875 52.558594 C 260.59375 52.53125 260.382812 52.46875 259.941406 52.457031 C 259.941406 52.5 259.664062 52.535156 259.449219 52.578125 C 259.367188 52.523438 259.492188 52.472656 259.179688 52.417969 C 258.964844 52.460938 258.773438 52.410156 258.566406 52.414062 C 258.65625 52.378906 258.476562 52.339844 258.515625 52.304688 C 257.6875 52.324219 256.875 52.289062 256.0625 52.25 C 255.578125 52.34375 255.148438 52.199219 254.671875 52.265625 C 253.898438 52.097656 252.675781 52.34375 252.160156 52.132812 C 251.992188 52.1875 251.847656 52.148438 251.683594 52.191406 C 251.492188 52.128906 251.289062 52.125 251.09375 52.089844 C 251.410156 52.058594 251.65625 52.121094 251.804688 52.019531 C 251.652344 52.101562 251.984375 52.0625 252.25 52.085938 C 252.453125 52.023438 252.152344 52.039062 251.957031 52.023438 C 252.332031 51.953125 252.683594 51.996094 253.039062 52.003906 C 253.171875 52.035156 252.679688 52.050781 252.570312 52.027344 C 252.683594 52.109375 253.492188 52.035156 253.875 52.058594 C 253.710938 51.996094 253.511719 52.066406 253.347656 52.003906 C 254.050781 52.03125 254.332031 51.957031 254.980469 51.945312 C 255.199219 51.980469 254.460938 52.011719 254.875 52.050781 C 254.984375 52.03125 255.09375 52.011719 255.199219 51.992188 C 255.859375 52.0625 256.664062 52.015625 257.132812 51.964844 C 256.671875 52.046875 257.410156 52.027344 257.804688 52.046875 C 257.859375 52.007812 258.0625 51.972656 257.75 51.96875 C 258.304688 51.859375 258.351562 52.039062 258.828125 51.949219 C 259.039062 52 258.917969 52.042969 258.875 52.089844 C 259.082031 52.117188 259.4375 52.015625 259.4375 51.988281 C 259.765625 51.953125 260.339844 52.097656 260.441406 51.980469 C 260.578125 51.984375 261.085938 52.03125 260.960938 52.0625 C 261.273438 51.992188 262.125 51.984375 262.816406 52.050781 C 262.402344 52.082031 262.449219 52.070312 262.09375 52.152344 C 262.34375 52.191406 262.59375 52.214844 262.839844 52.253906 C 263.074219 52.238281 262.632812 52.140625 262.9375 52.175781 C 263.097656 52.097656 262.589844 52.175781 262.476562 52.171875 C 262.429688 52.070312 263.347656 52.007812 263.71875 52.121094 C 264.230469 52.132812 264.792969 51.9375 265.28125 52.042969 C 265.386719 52.023438 265.496094 52.003906 265.605469 51.984375 C 265.855469 52.019531 265.578125 52.046875 265.582031 52.078125 C 265.882812 52.105469 266.21875 51.988281 266.511719 52.054688 C 266.660156 52.117188 266.210938 52.09375 266.109375 52.128906 C 266.980469 52.097656 267.800781 52.042969 268.332031 52.167969 C 268.59375 52.164062 268.84375 52.179688 269.117188 52.113281 C 268.941406 52.085938 268.90625 52.058594 269.058594 52.035156 C 269.351562 52.113281 270.207031 52.019531 270.734375 52.113281 C 270.546875 52.152344 270.359375 52.1875 270.1875 52.152344 C 270.328125 52.207031 271.144531 52.21875 271.554688 52.230469 C 271.925781 52.15625 271.289062 52.226562 271.1875 52.148438 C 271.457031 52.097656 271.703125 52.152344 271.972656 52.09375 C 271.917969 52.066406 271.925781 52.042969 272.066406 52.015625 C 271.875 51.972656 271.785156 52.007812 271.777344 51.953125 C 271.878906 51.949219 271.984375 51.945312 272.089844 51.925781 C 272.457031 52.046875 272.574219 52.015625 273.058594 52.074219 C 272.78125 52.148438 272.554688 52.023438 272.28125 52.097656 C 272.445312 52.15625 272.632812 52.121094 272.800781 52.179688 C 272.652344 52.117188 273.371094 52.074219 273.671875 52.078125 C 273.746094 52.101562 273.585938 52.121094 273.503906 52.140625 C 273.691406 52.214844 273.910156 52.148438 274.101562 52.207031 C 274.242188 52.179688 273.90625 52.144531 273.972656 52.113281 C 274.523438 52.0625 275.042969 52.148438 275.589844 52.113281 C 275.609375 52.03125 275.195312 52.121094 274.984375 52.078125 C 274.9375 52.0625 274.988281 52.046875 274.917969 52.03125 C 275.300781 52.0625 275.421875 52.003906 275.855469 51.976562 " fill-opacity="1" fill-rule="evenodd"/>
          </g>
        
          <!-- Second séparateur -->
          <path fill="#000000" d="M 234.589844 50.226562 C 234.726562 50.195312 234.390625 50.160156 234.460938 50.128906 C 234.539062 50.117188 234.613281 50.140625 234.6875 50.148438 C 234.8125 50.109375 234.742188 50.089844 234.546875 50.085938 C 234.828125 50.027344 235.097656 50.027344 235.367188 50.003906 L 233.714844 50.003906 C 233.910156 50.042969 234.125 50.023438 234.328125 50.035156 C 234.378906 50.113281 233.824219 50.015625 233.625 50.074219 C 234.101562 50.183594 233.40625 50.113281 233.222656 50.148438 C 233.941406 50.265625 233.894531 50.140625 234.589844 50.226562 " fill-opacity="1" fill-rule="evenodd"/><path fill="#000000" d="M 237.796875 50.023438 C 237.878906 50.054688 237.605469 50.082031 237.929688 50.117188 C 238.304688 50.003906 239.488281 49.984375 239.472656 50.101562 C 239.808594 50.09375 240.128906 50.152344 240.484375 50.066406 C 240.875 50.195312 241.527344 50.050781 241.691406 50.171875 C 242.136719 49.988281 243.089844 50.28125 243.78125 50.144531 C 244.410156 50.191406 245.0625 50.148438 245.691406 50.210938 C 245.894531 50.253906 245.296875 50.210938 245.675781 50.269531 C 246.734375 50.136719 247.710938 50.34375 248.757812 50.269531 C 248.636719 50.238281 248.503906 50.253906 248.386719 50.21875 C 248.324219 50.199219 248.496094 50.179688 248.398438 50.15625 C 248.859375 50.175781 249.300781 50.253906 249.761719 50.265625 C 249.851562 50.226562 249.640625 50.234375 249.542969 50.214844 C 249.417969 50.160156 249.886719 50.230469 250.019531 50.160156 C 250.03125 50.199219 250.105469 50.214844 250.308594 50.222656 C 250.746094 50.050781 251.519531 50.296875 252.167969 50.179688 C 252.4375 50.222656 252.425781 50.265625 252.140625 50.304688 C 252.332031 50.359375 252.550781 50.304688 252.746094 50.339844 C 252.832031 50.316406 252.628906 50.289062 252.535156 50.261719 C 252.753906 50.195312 252.957031 50.214844 253.164062 50.203125 C 253.273438 50.238281 253.191406 50.265625 252.988281 50.296875 C 253.539062 50.242188 254.066406 50.300781 254.605469 50.296875 C 254.6875 50.328125 254.414062 50.355469 254.738281 50.390625 C 255.078125 50.234375 256.695312 50.359375 257.226562 50.289062 C 257.386719 50.367188 258.003906 50.355469 257.503906 50.417969 C 257.832031 50.4375 257.871094 50.394531 257.910156 50.34375 C 258.234375 50.335938 258.28125 50.496094 258.734375 50.429688 C 258.59375 50.375 258.425781 50.425781 258.28125 50.394531 C 258.386719 50.378906 258.410156 50.363281 258.367188 50.347656 C 259.136719 50.363281 259.882812 50.457031 260.683594 50.339844 C 260.644531 50.425781 260.710938 50.414062 260.953125 50.496094 C 261.199219 50.453125 260.894531 50.402344 260.757812 50.355469 C 261.195312 50.234375 261.558594 50.441406 261.992188 50.335938 C 262.453125 50.398438 261.777344 50.449219 262.03125 50.507812 C 262.324219 50.453125 262.183594 50.394531 262.300781 50.339844 C 262.609375 50.289062 262.59375 50.402344 262.753906 50.375 C 262.828125 50.402344 262.613281 50.425781 262.507812 50.449219 C 262.769531 50.476562 263.199219 50.433594 263.0625 50.378906 C 263.578125 50.488281 263.585938 50.394531 263.957031 50.511719 C 264.472656 50.453125 264.515625 50.480469 265.035156 50.523438 C 265.109375 50.480469 264.835938 50.4375 265.214844 50.398438 C 265.09375 50.371094 264.972656 50.34375 264.851562 50.320312 C 264.570312 50.3125 264.699219 50.398438 264.390625 50.3125 C 264.222656 50.332031 264.292969 50.355469 264.371094 50.375 C 263.898438 50.367188 262.40625 50.386719 262.710938 50.234375 C 262.566406 50.199219 262.390625 50.28125 262.234375 50.292969 C 261.988281 50.226562 262.210938 50.179688 262.5 50.15625 C 262.347656 50.136719 261.558594 50.136719 261.871094 50.210938 C 261.53125 50.234375 261.214844 50.160156 260.859375 50.25 C 260.730469 50.210938 261.195312 50.179688 261.117188 50.144531 C 260.863281 50.078125 260.050781 50.191406 260.292969 50.058594 C 260.101562 50.019531 260.003906 50.101562 260.121094 50.117188 C 259.839844 50.117188 259.558594 50.109375 259.285156 50.0625 C 259.207031 50.089844 259.289062 50.113281 259.191406 50.140625 C 259.003906 50.164062 258.835938 50.125 258.648438 50.148438 C 258.640625 50.125 258.683594 50.097656 258.746094 50.074219 C 258.0625 50.128906 257.398438 50.117188 256.738281 50.085938 C 256.570312 50.039062 256.980469 50.082031 257.058594 50.027344 C 256.890625 49.992188 256.710938 50.019531 256.539062 50.003906 L 255.234375 50.003906 C 255.230469 50.007812 255.222656 50.003906 255.214844 50.007812 C 255.207031 50.007812 255.203125 50.003906 255.195312 50.003906 L 237.382812 50.003906 C 237.519531 50.023438 237.652344 50.050781 237.796875 50.023438 " fill-opacity="1" fill-rule="evenodd"/><path fill="#000000" d="M 228.542969 50.003906 C 228.277344 50.160156 229.5 50.082031 229.910156 50.132812 C 230.070312 50.050781 229.570312 50.113281 229.464844 50.066406 C 229.34375 50 229.824219 50.023438 229.941406 50.007812 C 230.414062 50.214844 231.472656 50.097656 232.210938 50.1875 C 232.511719 50.152344 232.164062 50.113281 232.46875 50.082031 C 232.574219 50.066406 232.667969 50.101562 232.773438 50.082031 C 232.847656 50.109375 232.636719 50.132812 232.527344 50.15625 C 232.746094 50.199219 232.980469 50.203125 233.222656 50.148438 C 233.238281 50.117188 232.976562 50.085938 233.242188 50.058594 C 233.097656 50.023438 232.929688 50.078125 232.789062 50.019531 C 232.84375 50.007812 232.890625 50.007812 232.941406 50.003906 L 232.226562 50.003906 C 232.019531 50.050781 231.824219 50.039062 231.632812 50.023438 C 231.683594 50.015625 231.738281 50.011719 231.789062 50.003906 L 228.542969 50.003906 " fill-opacity="1" fill-rule="evenodd"/>
          <g clip-path="url(#81ee105198)">
            <path fill="#000000" d="M 649.484375 52.894531 L 649.792969 52.894531 C 649.796875 52.882812 649.839844 52.871094 649.886719 52.863281 C 649.648438 52.832031 649.625 52.867188 649.484375 52.894531 " fill-opacity="1" fill-rule="evenodd"/>
          </g>
          <g clip-path="url(#cfa2c13d47)">
            <path fill="#000000" d="M 617.179688 52.894531 L 618.121094 52.894531 C 618.125 52.894531 618.128906 52.894531 618.132812 52.890625 C 617.859375 52.871094 617.5625 52.917969 617.292969 52.867188 C 617.238281 52.878906 617.203125 52.886719 617.179688 52.894531 " fill-opacity="1" fill-rule="evenodd"/>
          </g>
          <g clip-path="url(#1f8c58f281)">
            <path fill="#000000" d="M 612.238281 52.894531 L 612.726562 52.894531 C 612.539062 52.878906 612.363281 52.875 612.238281 52.894531 " fill-opacity="1" fill-rule="evenodd"/></g>
            <g clip-path="url(#c7d3c3917c)">
              <path fill="#000000" d="M 613.796875 52.894531 L 614.140625 52.894531 C 614.046875 52.890625 613.949219 52.886719 613.820312 52.882812 C 613.808594 52.886719 613.800781 52.890625 613.796875 52.894531 " fill-opacity="1" fill-rule="evenodd"/>
            </g>
            <path fill="#000000" d="M 634.476562 50.003906 L 633.988281 50.003906 C 634.019531 50.015625 634.03125 50.027344 634 50.050781 C 634.152344 50.054688 634.316406 50.027344 634.476562 50.003906 " fill-opacity="1" fill-rule="evenodd"/><path fill="#000000" d="M 622.128906 50.0625 C 623.125 50 624.742188 50.078125 625.976562 50.097656 C 626.242188 50.070312 626 50.035156 626.152344 50.003906 L 623.398438 50.003906 C 623.390625 50.007812 623.382812 50.007812 623.378906 50.011719 C 623.359375 50.007812 623.34375 50.007812 623.328125 50.003906 L 621.011719 50.003906 C 621.386719 50.015625 621.757812 50.03125 622.128906 50.0625 " fill-opacity="1" fill-rule="evenodd"/><path fill="#000000" d="M 655.277344 50.011719 C 655.285156 50.007812 655.292969 50.007812 655.304688 50.003906 L 655.210938 50.003906 C 655.234375 50.007812 655.253906 50.007812 655.277344 50.011719 " fill-opacity="1" fill-rule="evenodd"/><path fill="#000000" d="M 634.6875 50.074219 C 634.929688 50.117188 635.148438 50.046875 635.089844 50.003906 L 635.050781 50.003906 C 635.027344 50.027344 634.75 50.050781 634.6875 50.074219 " fill-opacity="1" fill-rule="evenodd"/><g clip-path="url(#24e59f2fca)"><path fill="#000000" d="M 447.402344 52.804688 C 447.140625 52.804688 446.617188 52.832031 446.671875 52.894531 L 446.894531 52.894531 C 447.070312 52.867188 447.292969 52.835938 447.402344 52.804688 " fill-opacity="1" fill-rule="evenodd"/></g><g clip-path="url(#5521c88875)"><path fill="#000000" d="M 670.902344 51.980469 C 671.0625 52 670.996094 51.957031 671.148438 51.933594 C 671.355469 52.035156 671.621094 51.886719 671.828125 51.988281 C 671.546875 52.070312 670.898438 52.03125 670.902344 51.980469 Z M 660.160156 51.488281 C 660.367188 51.484375 660.582031 51.433594 660.777344 51.492188 C 660.425781 51.570312 660.199219 51.492188 660.160156 51.488281 Z M 650.808594 51.921875 C 651.0625 51.929688 651.332031 51.878906 651.574219 51.929688 C 651.355469 51.972656 650.746094 52 650.808594 51.921875 Z M 649.671875 50.886719 C 649.707031 50.828125 650.195312 50.832031 650.4375 50.894531 C 650.167969 50.957031 649.921875 50.917969 649.671875 50.886719 Z M 650.269531 52.554688 C 650.203125 52.542969 649.785156 52.550781 649.953125 52.582031 C 650.21875 52.566406 650.46875 52.578125 650.714844 52.621094 C 650.5 52.671875 650.304688 52.632812 650.109375 52.582031 C 649.859375 52.625 649.421875 52.597656 649.390625 52.683594 C 648.90625 52.613281 648.273438 52.753906 648.023438 52.609375 C 647.960938 52.703125 647.429688 52.695312 647.164062 52.648438 C 647.910156 52.632812 647.800781 52.523438 648.519531 52.457031 C 648.792969 52.585938 648.800781 52.445312 648.957031 52.554688 C 649.351562 52.535156 650.15625 52.476562 650.269531 52.554688 Z M 651.273438 52.546875 C 651.390625 52.621094 650.828125 52.617188 651.089844 52.667969 C 650.929688 52.695312 650.773438 52.707031 650.621094 52.695312 C 650.976562 52.648438 650.78125 52.5 651.273438 52.546875 Z M 645.773438 52.664062 C 645.652344 52.636719 645.53125 52.609375 645.410156 52.582031 C 645.097656 52.585938 644.769531 52.675781 644.476562 52.605469 C 644.640625 52.507812 645.351562 52.496094 645.730469 52.523438 C 645.660156 52.5 645.777344 52.496094 645.894531 52.496094 C 645.640625 52.488281 645.394531 52.417969 645.140625 52.425781 C 644.734375 52.511719 644.332031 52.574219 643.96875 52.492188 C 644.585938 52.5 644.4375 52.429688 644.683594 52.390625 C 644.679688 52.46875 644.984375 52.421875 645.152344 52.363281 C 645.355469 52.371094 645.433594 52.386719 645.445312 52.429688 C 646.003906 52.359375 646.515625 52.472656 647.070312 52.398438 C 647.308594 52.4375 647.015625 52.535156 647.445312 52.449219 C 647.703125 52.496094 647.683594 52.621094 647.261719 52.570312 C 647.351562 52.550781 647.429688 52.53125 647.277344 52.507812 C 647.179688 52.683594 646.292969 52.621094 645.773438 52.664062 Z M 644.125 52.789062 C 644.359375 52.800781 644.996094 52.785156 644.960938 52.84375 C 644.726562 52.84375 644.085938 52.867188 644.125 52.789062 Z M 643.632812 50.6875 C 643.925781 50.644531 644.199219 50.671875 644.472656 50.714844 C 644.175781 50.773438 643.910156 50.707031 643.632812 50.6875 Z M 642.71875 52.542969 C 642.828125 52.523438 642.9375 52.503906 643.046875 52.484375 C 643.234375 52.550781 643.4375 52.550781 643.660156 52.488281 C 643.730469 52.503906 643.804688 52.519531 643.878906 52.535156 C 643.480469 52.589844 643.105469 52.550781 642.71875 52.542969 Z M 648.351562 50.921875 C 648.054688 50.878906 647.730469 50.9375 647.441406 50.851562 C 647.714844 50.8125 648.363281 50.847656 648.351562 50.921875 Z M 641.433594 52.449219 C 641.703125 52.40625 641.953125 52.421875 642.195312 52.488281 C 641.929688 52.523438 641.6875 52.46875 641.433594 52.449219 Z M 641.257812 52.542969 C 641.136719 52.515625 641.015625 52.488281 640.890625 52.460938 C 640.355469 52.53125 640.242188 52.464844 639.648438 52.511719 C 639.808594 52.480469 639.550781 52.449219 639.824219 52.421875 C 640.117188 52.484375 640.433594 52.453125 640.742188 52.429688 C 640.632812 52.375 640.617188 52.324219 640.9375 52.277344 C 641.164062 52.300781 641.390625 52.308594 641.609375 52.359375 C 641.367188 52.410156 641.148438 52.367188 640.898438 52.429688 C 641.015625 52.496094 641.609375 52.464844 641.644531 52.53125 C 641.519531 52.515625 641.390625 52.515625 641.257812 52.542969 Z M 638.820312 52.425781 C 639.144531 52.464844 639.125 52.363281 639.515625 52.417969 C 639.316406 52.480469 638.730469 52.511719 638.820312 52.425781 Z M 642.085938 50.707031 C 642.0625 50.769531 641.617188 50.78125 641.382812 50.746094 C 641.410156 50.667969 641.847656 50.691406 642.085938 50.707031 Z M 637.328125 50.628906 C 637.101562 50.609375 636.855469 50.667969 636.640625 50.605469 C 636.84375 50.5 637.636719 50.648438 637.328125 50.628906 Z M 637.128906 52.410156 C 636.765625 52.417969 636.414062 52.386719 636.0625 52.367188 C 636.398438 52.304688 637.320312 52.292969 637.128906 52.410156 Z M 635.285156 52.390625 C 635.417969 52.328125 635.683594 52.3125 635.988281 52.351562 C 635.746094 52.378906 635.515625 52.382812 635.285156 52.390625 Z M 634.351562 52.738281 C 634.597656 52.796875 634.878906 52.6875 635.121094 52.746094 C 634.898438 52.796875 634.289062 52.820312 634.351562 52.738281 Z M 634.203125 52.410156 C 634.0625 52.4375 633.9375 52.4375 633.8125 52.421875 C 634.078125 52.375 634.339844 52.363281 634.589844 52.398438 C 634.457031 52.417969 634.316406 52.460938 634.195312 52.441406 C 634.238281 52.433594 634.277344 52.421875 634.203125 52.410156 Z M 632.816406 50.476562 C 633.238281 50.4375 633.628906 50.511719 634.050781 50.488281 C 633.886719 50.585938 633.195312 50.515625 632.816406 50.476562 Z M 634.464844 52.273438 C 634.609375 52.308594 634.777344 52.253906 634.917969 52.308594 C 634.835938 52.324219 634.757812 52.339844 634.675781 52.355469 C 634.484375 52.316406 634.292969 52.332031 634.464844 52.273438 Z M 629.285156 52.65625 C 629.988281 52.660156 630.300781 52.664062 630.894531 52.6875 C 630.347656 52.738281 629.8125 52.714844 629.285156 52.65625 Z M 628.402344 52.167969 C 628.058594 52.117188 628.507812 52.035156 628.726562 52.109375 C 628.5 52.148438 628.6875 52.167969 628.402344 52.167969 Z M 625.890625 52.6875 C 625.605469 52.636719 625.496094 52.589844 625.84375 52.546875 C 626.082031 52.5625 626.140625 52.644531 626.519531 52.632812 C 626.296875 52.703125 626.105469 52.632812 625.890625 52.6875 Z M 619.285156 52.589844 C 619.601562 52.554688 619.910156 52.558594 620.210938 52.601562 C 619.890625 52.636719 619.582031 52.632812 619.285156 52.589844 Z M 617.722656 52.050781 C 617.949219 51.984375 618.277344 52.015625 618.285156 51.945312 C 618.332031 51.957031 618.382812 51.96875 618.433594 51.976562 C 618.484375 51.96875 618.539062 51.964844 618.585938 51.980469 C 618.4375 52.050781 618.046875 52.09375 617.722656 52.050781 Z M 606.171875 52.648438 C 605.824219 52.605469 606.277344 52.511719 606.5 52.558594 C 606.277344 52.589844 606.460938 52.621094 606.171875 52.648438 Z M 601.007812 52.644531 C 601.347656 52.535156 601.613281 52.707031 601.941406 52.625 C 601.746094 52.585938 601.558594 52.601562 601.726562 52.542969 C 602.070312 52.546875 601.910156 52.613281 602.242188 52.65625 C 602.59375 52.582031 602.898438 52.703125 603.25 52.621094 C 603.046875 52.605469 602.839844 52.621094 602.648438 52.554688 C 602.816406 52.511719 602.960938 52.550781 603.128906 52.496094 C 603.402344 52.519531 603.039062 52.617188 603.414062 52.589844 C 603.644531 52.558594 603.191406 52.515625 603.515625 52.484375 C 603.671875 52.476562 603.820312 52.492188 603.96875 52.519531 C 603.941406 52.566406 603.617188 52.609375 603.703125 52.65625 C 603.886719 52.648438 604.058594 52.6875 604.234375 52.707031 C 603.152344 52.71875 602.070312 52.722656 601.007812 52.644531 Z M 600.175781 52.589844 C 600.25 52.523438 600.640625 52.582031 600.585938 52.488281 C 600.960938 52.535156 600.398438 52.640625 600.175781 52.589844 Z M 599.328125 52.597656 C 599.339844 52.53125 599.730469 52.554688 599.972656 52.480469 C 600.046875 52.496094 600.117188 52.511719 600.191406 52.527344 C 599.894531 52.578125 599.597656 52.648438 599.328125 52.597656 Z M 595.09375 52.570312 C 595.34375 52.519531 595.386719 52.402344 595.8125 52.472656 C 595.570312 52.53125 595.398438 52.582031 595.855469 52.609375 C 595.59375 52.640625 595.339844 52.625 595.09375 52.570312 Z M 590.394531 52.574219 C 590.253906 52.523438 590.101562 52.519531 589.933594 52.570312 C 589.652344 52.472656 590.472656 52.367188 590.890625 52.421875 C 590.425781 52.484375 590.449219 52.488281 590.394531 52.574219 Z M 480.882812 50.09375 C 480.972656 50.054688 481.050781 50.027344 481.207031 50.035156 C 481.121094 50.054688 481.230469 50.074219 481.34375 50.097656 C 481.179688 50.132812 481.027344 50.128906 480.882812 50.09375 Z M 455.898438 52.40625 C 455.503906 52.480469 454.695312 52.542969 454.078125 52.589844 C 453.84375 52.535156 454.03125 52.488281 454.269531 52.4375 C 454.644531 52.398438 455.183594 52.40625 455.757812 52.34375 C 455.832031 52.363281 455.976562 52.386719 455.898438 52.40625 Z M 452 52.585938 C 451.875 52.554688 451.808594 52.523438 451.867188 52.492188 C 452.386719 52.480469 452.914062 52.429688 453.421875 52.445312 C 452.945312 52.5 452.476562 52.527344 452 52.585938 Z M 449.65625 52.71875 C 450.335938 52.640625 450.917969 52.613281 451.253906 52.484375 C 451.351562 52.507812 451.449219 52.527344 451.546875 52.550781 C 451.082031 52.582031 450.515625 52.785156 449.65625 52.71875 Z M 443.976562 52.632812 C 443.757812 52.589844 444.019531 52.550781 444.003906 52.507812 C 444.179688 52.53125 444.367188 52.496094 444.535156 52.558594 C 444.34375 52.59375 444.171875 52.574219 443.976562 52.632812 Z M 673.835938 51.976562 C 673.832031 51.886719 673.453125 51.914062 673.292969 51.988281 C 672.945312 51.941406 673.65625 51.894531 673.160156 51.890625 C 673.40625 51.847656 673.945312 51.835938 673.578125 51.757812 C 673.355469 51.753906 673.265625 51.792969 673.484375 51.832031 C 673.378906 51.847656 673.28125 51.816406 673.183594 51.800781 C 672.882812 51.832031 672.964844 51.871094 672.773438 51.90625 C 672.3125 51.898438 671.859375 51.867188 671.382812 51.921875 C 670.855469 51.757812 670.257812 51.890625 669.703125 51.84375 C 669.765625 51.71875 670.574219 51.808594 670.664062 51.699219 C 669.800781 51.738281 669.308594 51.625 668.34375 51.738281 C 668.128906 51.667969 667.988281 51.609375 667.582031 51.699219 C 667.390625 51.628906 667.511719 51.554688 667.855469 51.53125 C 667.738281 51.488281 667.597656 51.535156 667.472656 51.511719 C 667.613281 51.566406 667.109375 51.613281 667.4375 51.667969 C 666.917969 51.582031 666.351562 51.691406 665.820312 51.664062 C 666.535156 51.605469 667 51.542969 667.15625 51.539062 C 666.953125 51.425781 666.019531 51.574219 665.523438 51.601562 C 665.507812 51.519531 664.96875 51.539062 664.691406 51.546875 C 664.621094 51.566406 664.78125 51.589844 664.675781 51.609375 C 664.597656 51.617188 664.523438 51.605469 664.441406 51.621094 C 664.421875 51.59375 664.550781 51.570312 664.382812 51.542969 C 663.742188 51.535156 663.089844 51.59375 662.445312 51.601562 C 662.398438 51.585938 662.449219 51.570312 662.378906 51.554688 C 663.070312 51.527344 663.304688 51.476562 663.945312 51.445312 C 663.425781 51.371094 662.871094 51.425781 662.34375 51.382812 C 662.148438 51.4375 662.574219 51.402344 662.632812 51.449219 C 662.496094 51.488281 662.371094 51.476562 662.238281 51.492188 C 661.894531 51.441406 662.164062 51.367188 661.808594 51.363281 C 661.652344 51.386719 661.726562 51.414062 661.558594 51.4375 C 661.632812 51.453125 661.714844 51.433594 661.792969 51.425781 C 661.960938 51.460938 661.894531 51.585938 662.085938 51.488281 C 662.523438 51.578125 661.972656 51.609375 661.675781 51.59375 C 662.070312 51.550781 661.246094 51.535156 661.550781 51.46875 C 661.351562 51.4375 661.121094 51.546875 660.921875 51.523438 C 660.707031 51.464844 661.265625 51.425781 661.484375 51.421875 C 661.683594 51.382812 661.316406 51.339844 661.515625 51.296875 C 661.242188 51.257812 660.941406 51.324219 660.671875 51.273438 C 660.703125 51.207031 660.992188 51.230469 661.164062 51.15625 C 660.90625 51.0625 660.59375 51.179688 660.332031 51.101562 C 660.179688 51.15625 660.671875 51.132812 660.769531 51.199219 C 660.539062 51.195312 660.304688 51.203125 660.082031 51.175781 C 660.410156 51.242188 660.21875 51.277344 660.117188 51.347656 C 660.039062 51.355469 659.960938 51.34375 659.882812 51.359375 C 659.546875 51.324219 660.085938 51.300781 659.75 51.265625 C 659.394531 51.363281 657.609375 51.273438 657.773438 51.152344 C 657.554688 51.207031 657.300781 51.175781 657.289062 51.242188 C 656.894531 51.191406 657.175781 51.148438 656.9375 51.097656 C 657.320312 51.117188 657.71875 51.058594 658.097656 51.09375 C 657.878906 51.023438 656.988281 51.007812 656.492188 51.03125 C 656.347656 51 656.621094 50.972656 656.363281 50.9375 C 656.027344 50.984375 655.675781 51.03125 655.207031 50.941406 C 655.144531 51.019531 654.820312 51.007812 655.011719 51.09375 C 654.800781 51.027344 654.488281 51.125 654.097656 51.054688 C 654.300781 51.171875 653.460938 51.097656 653.457031 51.171875 C 652.910156 51.121094 653.800781 51.082031 653.410156 51.03125 C 653.164062 51.09375 652.933594 51.09375 652.710938 51.074219 C 652.6875 51.035156 652.777344 51 652.808594 50.964844 C 653.609375 50.933594 654.363281 50.996094 654.980469 50.925781 C 654.8125 50.863281 654.613281 50.957031 654.449219 50.871094 C 653.410156 51.039062 652.472656 50.753906 651.441406 50.890625 C 650.503906 50.726562 648.679688 50.875 648.25 50.703125 C 647.945312 50.6875 647.640625 50.683594 647.335938 50.664062 C 647.144531 50.78125 646.636719 50.691406 646.242188 50.714844 C 646.222656 50.6875 646.355469 50.664062 646.1875 50.636719 C 646.140625 50.71875 645.589844 50.714844 645.644531 50.648438 C 644.773438 50.734375 643.964844 50.589844 643.105469 50.636719 C 643.335938 50.683594 642.902344 50.707031 642.773438 50.726562 C 642.644531 50.691406 643.109375 50.660156 643.03125 50.621094 C 642.332031 50.539062 641.589844 50.632812 640.871094 50.632812 C 640.914062 50.515625 640.054688 50.5 639.882812 50.574219 C 639.742188 50.515625 639.578125 50.554688 639.4375 50.507812 C 639.015625 50.675781 637.488281 50.417969 636.574219 50.558594 C 635.933594 50.378906 634.625 50.652344 634.128906 50.472656 C 634.355469 50.492188 634.59375 50.46875 634.824219 50.464844 C 634.667969 50.378906 633.875 50.492188 633.285156 50.449219 C 633.042969 50.433594 632.1875 50.328125 632.136719 50.421875 C 631.976562 50.457031 631.839844 50.371094 631.691406 50.355469 C 631.136719 50.410156 630.613281 50.351562 630.058594 50.417969 C 629.4375 50.351562 628.070312 50.359375 627.074219 50.339844 C 620.421875 50.1875 613.757812 50.078125 607.089844 50.003906 L 483.902344 50.003906 C 483.769531 50.046875 483.683594 50.097656 483.421875 50.101562 C 483.378906 50.070312 483.3125 50.035156 483.328125 50.003906 L 483.179688 50.003906 C 483.210938 50.003906 483.25 50.007812 483.289062 50.007812 C 483.21875 50.050781 483.074219 50.160156 482.726562 50.109375 C 483.269531 50.035156 482.601562 50.050781 482.539062 50.003906 L 481.941406 50.003906 C 481.808594 50.039062 481.742188 50.050781 481.570312 50.113281 C 481.421875 50.078125 481.453125 50.039062 481.464844 50.003906 L 479.304688 50.003906 C 478.550781 50.015625 477.792969 50.050781 477.015625 50.148438 C 476.328125 50.125 475.207031 50.195312 474.746094 50.296875 C 473.25 50.230469 470.644531 50.617188 468.710938 50.390625 C 469.175781 50.589844 467.550781 50.5 467.640625 50.675781 C 467.234375 50.660156 466.78125 50.839844 466.394531 50.726562 C 464.734375 50.898438 463.113281 50.90625 461.535156 50.757812 C 461.320312 50.804688 461.085938 50.855469 461.1875 50.90625 C 460.929688 50.925781 460.679688 50.898438 460.433594 50.839844 C 460.1875 50.910156 459.964844 50.875 459.734375 50.878906 C 459.621094 50.960938 459.40625 50.949219 459.234375 51.027344 C 459.378906 51.070312 459.546875 51.003906 459.695312 51.03125 C 458.667969 51.140625 457 51.136719 455.78125 50.980469 C 455.617188 51.09375 455.171875 51.117188 454.671875 51.09375 C 453.691406 51.320312 452.425781 51.441406 451.179688 51.523438 C 451.03125 51.492188 450.886719 51.457031 450.738281 51.425781 C 450.859375 51.527344 450.046875 51.5 449.707031 51.554688 C 449.679688 51.535156 449.644531 51.511719 449.722656 51.492188 C 448.609375 51.535156 447.566406 51.558594 446.667969 51.695312 C 445.5 51.726562 443.929688 51.777344 442.984375 51.953125 C 442.191406 51.9375 440.714844 52.121094 440.078125 52.191406 C 439.023438 52.304688 438.082031 52.398438 437.28125 52.554688 L 437.28125 52.570312 C 437.496094 52.578125 437.519531 52.625 437.652344 52.664062 C 437.523438 52.691406 437.402344 52.691406 437.28125 52.695312 L 437.28125 52.726562 C 437.488281 52.726562 437.625 52.710938 437.78125 52.757812 C 438.167969 52.648438 438.808594 52.804688 438.953125 52.691406 C 439.140625 52.660156 439.296875 52.753906 439.472656 52.773438 C 439.964844 52.75 440.457031 52.742188 440.945312 52.742188 C 440.566406 52.804688 440.355469 52.820312 439.941406 52.894531 L 442.1875 52.894531 C 443.488281 52.859375 444.867188 52.804688 446.121094 52.683594 C 446.332031 52.664062 446.53125 52.6875 446.730469 52.71875 C 446.75 52.695312 446.71875 52.667969 446.671875 52.640625 C 446.902344 52.644531 447.136719 52.617188 447.375 52.601562 C 447.695312 52.746094 448.605469 52.519531 449.035156 52.417969 C 449.253906 52.472656 448.917969 52.519531 448.691406 52.570312 C 448.90625 52.550781 449.230469 52.59375 449.210938 52.652344 C 448.820312 52.71875 448.753906 52.660156 448.492188 52.753906 C 448.664062 52.800781 448.875 52.65625 449.035156 52.742188 C 449.324219 52.714844 449.140625 52.683594 449.363281 52.652344 C 449.46875 52.648438 449.574219 52.640625 449.671875 52.65625 C 449.664062 52.707031 449.324219 52.757812 449.328125 52.808594 C 449.25 52.820312 449.171875 52.808594 449.09375 52.824219 C 449.28125 52.726562 448.617188 52.800781 448.324219 52.816406 C 448.183594 52.789062 448.265625 52.761719 448.113281 52.734375 C 447.683594 52.761719 447.46875 52.835938 447.21875 52.894531 L 612.019531 52.894531 C 611.96875 52.867188 611.957031 52.84375 611.757812 52.816406 C 611.523438 52.832031 611.273438 52.902344 611.0625 52.824219 C 610.671875 52.980469 609.75 52.773438 609.121094 52.882812 C 609.1875 52.851562 608.851562 52.816406 608.988281 52.789062 C 608.597656 52.816406 608.199219 52.871094 607.839844 52.757812 C 607.675781 52.800781 607.519531 52.816406 607.363281 52.816406 C 607.351562 52.796875 607.332031 52.777344 607.226562 52.753906 C 607.144531 52.804688 606.726562 52.800781 606.917969 52.75 C 606.667969 52.792969 606.269531 52.78125 605.84375 52.738281 C 605.925781 52.808594 605.71875 52.8125 605.4375 52.816406 C 605.367188 52.792969 605.523438 52.773438 605.605469 52.753906 C 605.230469 52.726562 604.835938 52.753906 604.457031 52.726562 C 604.773438 52.652344 604.855469 52.746094 605.015625 52.652344 C 604.789062 52.636719 604.5625 52.609375 604.328125 52.632812 C 604.253906 52.605469 604.46875 52.582031 604.574219 52.554688 C 604.855469 52.558594 605.117188 52.664062 605.417969 52.578125 C 605.074219 52.597656 605.246094 52.472656 604.898438 52.496094 C 604.816406 52.425781 605.113281 52.421875 605.382812 52.410156 C 605.511719 52.445312 605.3125 52.480469 605.277344 52.515625 C 605.570312 52.5625 605.6875 52.484375 605.835938 52.445312 C 606.09375 52.449219 606.355469 52.421875 606.597656 52.484375 C 606.03125 52.460938 606.152344 52.578125 605.734375 52.550781 C 605.578125 52.605469 606.21875 52.582031 605.710938 52.644531 C 605.40625 52.691406 605.796875 52.550781 605.492188 52.597656 C 605.078125 52.660156 605.433594 52.632812 605.621094 52.691406 C 605.519531 52.695312 605.414062 52.703125 605.316406 52.6875 C 605.636719 52.746094 606.652344 52.667969 607.234375 52.722656 C 607.09375 52.632812 607.527344 52.707031 607.5625 52.632812 C 607.203125 52.632812 606.84375 52.640625 606.472656 52.683594 C 606.332031 52.476562 607.578125 52.550781 607.980469 52.496094 C 608.535156 52.578125 607.976562 52.652344 608.3125 52.734375 C 608.355469 52.628906 608.816406 52.765625 609.09375 52.679688 C 608.851562 52.691406 608.179688 52.648438 608.425781 52.5625 C 608.835938 52.667969 608.839844 52.511719 609.425781 52.589844 C 609.726562 52.636719 609.316406 52.679688 609.621094 52.730469 C 609.753906 52.707031 609.886719 52.679688 610.023438 52.65625 C 609.910156 52.632812 609.800781 52.613281 609.882812 52.59375 C 610.621094 52.523438 611.332031 52.558594 612.058594 52.519531 C 611.847656 52.445312 611.601562 52.5 611.378906 52.46875 C 611.820312 52.417969 612.601562 52.386719 612.753906 52.511719 C 612.550781 52.5 612.34375 52.511719 612.125 52.566406 C 612.023438 52.625 612.492188 52.589844 612.335938 52.648438 C 612.824219 52.636719 613.261719 52.515625 613.566406 52.660156 C 613.761719 52.597656 613.929688 52.636719 614.109375 52.648438 C 614.109375 52.625 614.285156 52.597656 614.203125 52.574219 C 614.757812 52.632812 615.753906 52.53125 616.035156 52.652344 C 616.371094 52.648438 616.707031 52.625 617.042969 52.617188 C 617.054688 52.640625 617.007812 52.667969 616.949219 52.691406 C 617.230469 52.726562 617.164062 52.636719 617.351562 52.617188 C 617.652344 52.671875 617.457031 52.722656 617.316406 52.777344 C 617.660156 52.804688 618.101562 52.777344 618.214844 52.878906 C 618.332031 52.816406 618.050781 52.75 618.410156 52.691406 C 617.941406 52.640625 618.203125 52.828125 617.628906 52.746094 C 617.542969 52.683594 617.671875 52.648438 617.96875 52.625 C 618.566406 52.601562 619.117188 52.757812 619.714844 52.71875 C 619.917969 52.808594 619.453125 52.769531 619.230469 52.808594 C 619.480469 52.855469 619.746094 52.808594 620.007812 52.785156 C 619.992188 52.765625 619.972656 52.742188 619.871094 52.722656 C 620.078125 52.707031 620.144531 52.757812 620.183594 52.691406 C 620.605469 52.761719 621.082031 52.601562 621.480469 52.753906 C 621.546875 52.683594 622.195312 52.679688 622.25 52.761719 C 622.53125 52.628906 623.253906 52.640625 623.726562 52.695312 C 623.878906 52.675781 623.800781 52.65625 623.898438 52.636719 C 624.285156 52.691406 624.746094 52.648438 624.714844 52.753906 C 624.902344 52.71875 625.09375 52.683594 625.28125 52.648438 C 625.792969 52.707031 625.101562 52.75 625.398438 52.808594 C 625.746094 52.746094 626.074219 52.761719 626.402344 52.800781 C 626.460938 52.75 626.792969 52.699219 626.898438 52.648438 C 627.097656 52.714844 626.5 52.773438 626.855469 52.839844 C 626.890625 52.683594 627.875 52.703125 628.335938 52.773438 C 628.734375 52.746094 628.707031 52.652344 629.125 52.6875 C 629.09375 52.742188 628.789062 52.804688 629.257812 52.785156 C 629.3125 52.824219 629.171875 52.859375 628.976562 52.894531 L 629.304688 52.894531 C 629.324219 52.875 629.34375 52.851562 629.476562 52.832031 C 629.738281 52.804688 629.796875 52.847656 629.917969 52.894531 L 630.128906 52.894531 C 630.082031 52.867188 629.945312 52.835938 629.789062 52.804688 C 630.121094 52.824219 630.09375 52.75 630.480469 52.828125 C 630.828125 52.800781 630.304688 52.761719 630.65625 52.734375 C 630.972656 52.816406 631.695312 52.800781 632.25 52.828125 C 632.355469 52.789062 631.808594 52.773438 631.644531 52.792969 C 631.566406 52.667969 632.320312 52.691406 632.660156 52.722656 C 632.875 52.800781 632.121094 52.722656 632.335938 52.78125 C 632.710938 52.867188 632.652344 52.730469 633.035156 52.773438 C 632.574219 52.910156 634.054688 52.777344 634.613281 52.894531 L 634.777344 52.894531 C 635.015625 52.84375 635.519531 52.8125 635.890625 52.753906 C 635.820312 52.890625 637.089844 52.785156 637.28125 52.734375 C 637.390625 52.757812 637.503906 52.78125 637.421875 52.800781 C 637.554688 52.753906 637.863281 52.8125 638.203125 52.746094 C 638.425781 52.863281 638.738281 52.753906 639.289062 52.726562 C 639.394531 52.761719 639.191406 52.796875 639.492188 52.835938 C 640.464844 52.761719 640.964844 52.839844 641.964844 52.800781 C 642.070312 52.839844 641.867188 52.875 642.179688 52.878906 C 642.21875 52.765625 642.632812 52.820312 642.871094 52.894531 L 642.925781 52.894531 C 642.890625 52.8125 643.351562 52.761719 643.738281 52.800781 C 643.855469 52.878906 643.253906 52.796875 643.335938 52.875 C 643.386719 52.886719 643.4375 52.890625 643.492188 52.894531 L 643.757812 52.894531 C 643.769531 52.867188 643.730469 52.847656 643.957031 52.851562 C 644.007812 52.867188 643.925781 52.878906 643.871094 52.894531 L 644.476562 52.894531 C 644.484375 52.886719 644.496094 52.878906 644.492188 52.871094 C 644.648438 52.859375 644.675781 52.875 644.675781 52.894531 L 644.925781 52.894531 C 645.042969 52.863281 645.269531 52.847656 645.503906 52.835938 C 645.601562 52.910156 645.707031 52.867188 645.902344 52.894531 L 646.046875 52.894531 C 646.132812 52.851562 646.453125 52.863281 646.644531 52.890625 C 646.644531 52.894531 646.644531 52.894531 646.644531 52.894531 L 647.691406 52.894531 C 647.730469 52.882812 647.757812 52.867188 647.734375 52.839844 C 648.007812 52.886719 648.320312 52.75 648.59375 52.800781 C 648.765625 52.863281 648.453125 52.851562 648.214844 52.894531 L 649.027344 52.894531 C 649.328125 52.773438 650.171875 52.851562 650.4375 52.820312 C 650.414062 52.855469 650.257812 52.878906 650.109375 52.894531 L 650.921875 52.894531 C 650.859375 52.882812 650.800781 52.867188 650.738281 52.855469 C 650.898438 52.816406 651.058594 52.800781 651.207031 52.828125 C 650.953125 52.847656 651.15625 52.871094 651.15625 52.894531 L 651.992188 52.894531 C 652.015625 52.894531 652.039062 52.894531 652.0625 52.894531 L 653.800781 52.894531 C 653.976562 52.875 654.140625 52.886719 654.261719 52.894531 L 654.4375 52.894531 C 654.480469 52.886719 654.507812 52.875 654.515625 52.84375 C 654.605469 52.863281 654.613281 52.878906 654.59375 52.894531 L 655.371094 52.894531 C 655.417969 52.890625 655.460938 52.882812 655.511719 52.871094 C 654.351562 52.78125 653.171875 52.761719 651.996094 52.742188 C 651.664062 52.707031 652.203125 52.679688 651.867188 52.644531 C 651.574219 52.644531 651.65625 52.679688 651.464844 52.71875 C 651.167969 52.65625 651.679688 52.597656 651.96875 52.539062 C 652.621094 52.550781 653.328125 52.695312 654.1875 52.605469 C 654.417969 52.605469 654.636719 52.671875 654.867188 52.660156 C 654.667969 52.589844 654.726562 52.597656 655.183594 52.632812 C 655.457031 52.601562 655.199219 52.570312 655.359375 52.539062 C 655.910156 52.664062 656.066406 52.574219 656.582031 52.582031 C 656.789062 52.617188 656.59375 52.644531 656.867188 52.679688 C 656.847656 52.613281 657.101562 52.570312 657.421875 52.609375 C 657.632812 52.640625 657.015625 52.664062 657.402344 52.699219 C 657.511719 52.667969 657.613281 52.683594 657.707031 52.703125 C 657.722656 52.675781 657.8125 52.652344 657.957031 52.628906 C 658.613281 52.671875 658.9375 52.683594 659.464844 52.769531 C 659.625 52.636719 659.96875 52.804688 660.320312 52.730469 C 660.46875 52.789062 660.023438 52.746094 659.917969 52.804688 C 660.203125 52.804688 660.484375 52.792969 660.761719 52.828125 C 660.917969 52.816406 661.09375 52.730469 661.238281 52.769531 C 661.15625 52.6875 661.25 52.695312 661.65625 52.632812 C 661.0625 52.644531 660.839844 52.542969 660.351562 52.605469 C 660.082031 52.53125 660.550781 52.550781 660.300781 52.496094 C 659.976562 52.539062 659.949219 52.585938 660.039062 52.632812 C 659.851562 52.652344 659.675781 52.636719 659.488281 52.671875 C 659.488281 52.570312 658.988281 52.617188 658.726562 52.636719 C 658.546875 52.566406 659.066406 52.582031 659.144531 52.5 C 658.851562 52.484375 658.835938 52.511719 658.667969 52.558594 C 658.574219 52.53125 658.363281 52.46875 657.921875 52.457031 C 657.921875 52.5 657.644531 52.535156 657.429688 52.578125 C 657.347656 52.523438 657.472656 52.472656 657.160156 52.417969 C 656.945312 52.460938 656.753906 52.410156 656.546875 52.414062 C 656.636719 52.378906 656.457031 52.339844 656.492188 52.304688 C 655.667969 52.324219 654.855469 52.289062 654.042969 52.25 C 653.558594 52.34375 653.128906 52.199219 652.652344 52.265625 C 651.875 52.097656 650.65625 52.34375 650.140625 52.132812 C 649.972656 52.1875 649.828125 52.148438 649.664062 52.191406 C 649.472656 52.128906 649.269531 52.125 649.070312 52.089844 C 649.390625 52.058594 649.636719 52.121094 649.785156 52.019531 C 649.632812 52.101562 649.960938 52.0625 650.230469 52.085938 C 650.433594 52.023438 650.132812 52.039062 649.9375 52.023438 C 650.3125 51.953125 650.664062 51.996094 651.019531 52.003906 C 651.152344 52.035156 650.660156 52.050781 650.550781 52.027344 C 650.664062 52.109375 651.472656 52.035156 651.855469 52.058594 C 651.691406 51.996094 651.492188 52.066406 651.328125 52.003906 C 652.03125 52.03125 652.3125 51.957031 652.960938 51.945312 C 653.179688 51.980469 652.441406 52.011719 652.855469 52.050781 C 652.964844 52.03125 653.070312 52.011719 653.179688 51.992188 C 653.839844 52.0625 654.644531 52.015625 655.113281 51.964844 C 654.652344 52.046875 655.390625 52.027344 655.785156 52.046875 C 655.839844 52.007812 656.039062 51.972656 655.730469 51.96875 C 656.285156 51.859375 656.328125 52.039062 656.808594 51.949219 C 657.019531 52 656.898438 52.042969 656.855469 52.089844 C 657.0625 52.117188 657.417969 52.015625 657.417969 51.988281 C 657.746094 51.953125 658.320312 52.097656 658.421875 51.980469 C 658.558594 51.984375 659.066406 52.03125 658.941406 52.0625 C 659.253906 51.992188 660.105469 51.984375 660.792969 52.050781 C 660.382812 52.082031 660.429688 52.070312 660.074219 52.152344 C 660.324219 52.191406 660.574219 52.214844 660.820312 52.253906 C 661.054688 52.238281 660.613281 52.140625 660.917969 52.175781 C 661.074219 52.097656 660.570312 52.175781 660.457031 52.171875 C 660.410156 52.070312 661.328125 52.007812 661.699219 52.121094 C 662.210938 52.132812 662.773438 51.9375 663.261719 52.042969 C 663.367188 52.023438 663.476562 52.003906 663.585938 51.984375 C 663.835938 52.019531 663.558594 52.046875 663.5625 52.078125 C 663.863281 52.105469 664.199219 51.988281 664.492188 52.054688 C 664.636719 52.117188 664.1875 52.09375 664.089844 52.128906 C 664.960938 52.097656 665.78125 52.042969 666.3125 52.167969 C 666.570312 52.164062 666.824219 52.179688 667.097656 52.113281 C 666.921875 52.085938 666.882812 52.058594 667.039062 52.035156 C 667.332031 52.113281 668.1875 52.019531 668.714844 52.113281 C 668.527344 52.152344 668.339844 52.1875 668.167969 52.152344 C 668.308594 52.207031 669.125 52.21875 669.535156 52.230469 C 669.90625 52.15625 669.269531 52.226562 669.167969 52.148438 C 669.4375 52.097656 669.683594 52.152344 669.953125 52.09375 C 669.898438 52.066406 669.90625 52.042969 670.046875 52.015625 C 669.855469 51.972656 669.765625 52.007812 669.757812 51.953125 C 669.859375 51.949219 669.964844 51.945312 670.070312 51.925781 C 670.4375 52.046875 670.554688 52.015625 671.035156 52.074219 C 670.761719 52.148438 670.535156 52.023438 670.261719 52.097656 C 670.425781 52.15625 670.613281 52.121094 670.78125 52.179688 C 670.632812 52.117188 671.351562 52.074219 671.652344 52.078125 C 671.726562 52.101562 671.566406 52.121094 671.484375 52.140625 C 671.671875 52.214844 671.890625 52.148438 672.082031 52.207031 C 672.21875 52.179688 671.886719 52.144531 671.953125 52.113281 C 672.5 52.0625 673.023438 52.148438 673.570312 52.113281 C 673.589844 52.03125 673.175781 52.121094 672.960938 52.078125 C 672.917969 52.0625 672.96875 52.046875 672.898438 52.03125 C 673.28125 52.0625 673.398438 52.003906 673.835938 51.976562 " fill-opacity="1" fill-rule="evenodd"/></g><path fill="#000000" d="M 632.570312 50.226562 C 632.707031 50.195312 632.371094 50.160156 632.4375 50.128906 C 632.519531 50.117188 632.589844 50.140625 632.667969 50.148438 C 632.792969 50.109375 632.722656 50.089844 632.527344 50.085938 C 632.808594 50.027344 633.078125 50.027344 633.347656 50.003906 L 631.695312 50.003906 C 631.890625 50.042969 632.105469 50.023438 632.304688 50.035156 C 632.359375 50.113281 631.804688 50.015625 631.605469 50.074219 C 632.082031 50.183594 631.386719 50.113281 631.203125 50.148438 C 631.921875 50.265625 631.875 50.140625 632.570312 50.226562 " fill-opacity="1" fill-rule="evenodd"/><path fill="#000000" d="M 635.777344 50.023438 C 635.859375 50.054688 635.585938 50.082031 635.910156 50.117188 C 636.285156 50.003906 637.46875 49.984375 637.453125 50.101562 C 637.789062 50.09375 638.109375 50.152344 638.464844 50.066406 C 638.855469 50.195312 639.507812 50.050781 639.671875 50.171875 C 640.117188 49.988281 641.070312 50.28125 641.761719 50.144531 C 642.390625 50.191406 643.042969 50.148438 643.671875 50.210938 C 643.875 50.253906 643.277344 50.210938 643.65625 50.269531 C 644.714844 50.136719 645.691406 50.34375 646.738281 50.269531 C 646.617188 50.238281 646.484375 50.253906 646.367188 50.21875 C 646.304688 50.199219 646.476562 50.179688 646.378906 50.15625 C 646.835938 50.175781 647.277344 50.253906 647.742188 50.265625 C 647.832031 50.226562 647.621094 50.234375 647.523438 50.214844 C 647.398438 50.160156 647.863281 50.230469 648 50.160156 C 648.011719 50.199219 648.085938 50.214844 648.289062 50.222656 C 648.726562 50.050781 649.496094 50.296875 650.148438 50.179688 C 650.417969 50.222656 650.40625 50.265625 650.121094 50.304688 C 650.3125 50.359375 650.53125 50.304688 650.726562 50.339844 C 650.8125 50.316406 650.609375 50.289062 650.515625 50.261719 C 650.734375 50.195312 650.9375 50.214844 651.144531 50.203125 C 651.253906 50.238281 651.171875 50.265625 650.96875 50.296875 C 651.519531 50.242188 652.046875 50.300781 652.585938 50.296875 C 652.667969 50.328125 652.394531 50.355469 652.71875 50.390625 C 653.058594 50.234375 654.675781 50.359375 655.207031 50.289062 C 655.367188 50.367188 655.984375 50.355469 655.484375 50.417969 C 655.8125 50.4375 655.851562 50.394531 655.886719 50.34375 C 656.214844 50.335938 656.261719 50.496094 656.714844 50.429688 C 656.574219 50.375 656.40625 50.425781 656.261719 50.394531 C 656.367188 50.378906 656.390625 50.363281 656.347656 50.347656 C 657.117188 50.363281 657.863281 50.457031 658.664062 50.339844 C 658.625 50.425781 658.691406 50.414062 658.933594 50.496094 C 659.179688 50.453125 658.875 50.402344 658.738281 50.355469 C 659.175781 50.234375 659.539062 50.441406 659.972656 50.335938 C 660.433594 50.398438 659.753906 50.449219 660.011719 50.507812 C 660.304688 50.453125 660.164062 50.394531 660.28125 50.339844 C 660.589844 50.289062 660.574219 50.402344 660.734375 50.375 C 660.808594 50.402344 660.59375 50.425781 660.484375 50.449219 C 660.75 50.476562 661.179688 50.433594 661.042969 50.378906 C 661.558594 50.488281 661.566406 50.394531 661.9375 50.511719 C 662.453125 50.453125 662.496094 50.480469 663.011719 50.523438 C 663.089844 50.480469 662.816406 50.4375 663.195312 50.398438 C 663.074219 50.371094 662.953125 50.34375 662.832031 50.320312 C 662.550781 50.3125 662.679688 50.398438 662.371094 50.3125 C 662.203125 50.332031 662.273438 50.355469 662.351562 50.375 C 661.878906 50.367188 660.386719 50.386719 660.691406 50.234375 C 660.546875 50.199219 660.371094 50.28125 660.214844 50.292969 C 659.96875 50.226562 660.1875 50.179688 660.480469 50.15625 C 660.328125 50.136719 659.539062 50.136719 659.851562 50.210938 C 659.511719 50.234375 659.195312 50.160156 658.839844 50.25 C 658.707031 50.210938 659.175781 50.179688 659.097656 50.144531 C 658.84375 50.078125 658.03125 50.191406 658.269531 50.058594 C 658.082031 50.019531 657.984375 50.101562 658.101562 50.117188 C 657.820312 50.117188 657.539062 50.109375 657.265625 50.0625 C 657.1875 50.089844 657.269531 50.113281 657.171875 50.140625 C 656.984375 50.164062 656.816406 50.125 656.628906 50.148438 C 656.621094 50.125 656.664062 50.097656 656.726562 50.074219 C 656.042969 50.128906 655.378906 50.117188 654.71875 50.085938 C 654.550781 50.039062 654.960938 50.082031 655.039062 50.027344 C 654.871094 49.992188 654.691406 50.019531 654.519531 50.003906 L 653.214844 50.003906 C 653.207031 50.007812 653.203125 50.003906 653.195312 50.007812 C 653.1875 50.007812 653.183594 50.003906 653.175781 50.003906 L 635.363281 50.003906 C 635.5 50.023438 635.632812 50.050781 635.777344 50.023438 " fill-opacity="1" fill-rule="evenodd"/><path fill="#000000" d="M 626.523438 50.003906 C 626.257812 50.160156 627.480469 50.082031 627.890625 50.132812 C 628.050781 50.050781 627.546875 50.113281 627.445312 50.066406 C 627.324219 50 627.804688 50.023438 627.921875 50.007812 C 628.394531 50.214844 629.453125 50.097656 630.191406 50.1875 C 630.492188 50.152344 630.144531 50.113281 630.449219 50.082031 C 630.554688 50.066406 630.648438 50.101562 630.753906 50.082031 C 630.828125 50.109375 630.617188 50.132812 630.503906 50.15625 C 630.726562 50.199219 630.957031 50.203125 631.203125 50.148438 C 631.21875 50.117188 630.957031 50.085938 631.222656 50.058594 C 631.078125 50.023438 630.910156 50.078125 630.769531 50.019531 C 630.820312 50.007812 630.871094 50.007812 630.921875 50.003906 L 630.207031 50.003906 C 630 50.050781 629.804688 50.039062 629.613281 50.023438 C 629.664062 50.015625 629.71875 50.011719 629.769531 50.003906 L 626.523438 50.003906 " fill-opacity="1" fill-rule="evenodd"/>
          </svg>